# Wavefront OBJ file automatically generated by Tiled2Unity

# Vertices (Count = 204)
v 0 -32 0
v -32 -32 0
v -32 0 0
v 0 0 0
v -64 -32 0
v -64 0 0
v -96 -32 0
v -96 0 0
v -128 -32 0
v -128 0 0
v -160 -32 0
v -160 0 0
v -192 -32 0
v -192 0 0
v -224 -32 0
v -224 0 0
v -256 -32 0
v -256 0 0
v -288 -32 0
v -288 0 0
v -320 -32 0
v -320 0 0
v -352 -32 0
v -352 0 0
v -384 -32 0
v -384 0 0
v -416 -32 0
v -416 0 0
v -448 -32 0
v -448 0 0
v -480 -32 0
v -480 0 0
v -512 -32 0
v -512 0 0
v 0 -64 0
v -32 -64 0
v -64 -64 0
v -96 -64 0
v -128 -64 0
v -160 -64 0
v -192 -64 0
v -224 -64 0
v -256 -64 0
v -288 -64 0
v -320 -64 0
v -352 -64 0
v -384 -64 0
v -416 -64 0
v -448 -64 0
v -480 -64 0
v -512 -64 0
v 0 -96 0
v -32 -96 0
v -64 -96 0
v -96 -96 0
v -128 -96 0
v -160 -96 0
v -192 -96 0
v -224 -96 0
v -256 -96 0
v -288 -96 0
v -320 -96 0
v -352 -96 0
v -384 -96 0
v -416 -96 0
v -448 -96 0
v -480 -96 0
v -512 -96 0
v 0 -128 0
v -32 -128 0
v -64 -128 0
v -96 -128 0
v -128 -128 0
v -160 -128 0
v -192 -128 0
v -224 -128 0
v -256 -128 0
v -288 -128 0
v -320 -128 0
v -352 -128 0
v -384 -128 0
v -416 -128 0
v -448 -128 0
v -480 -128 0
v -512 -128 0
v 0 -160 0
v -32 -160 0
v -64 -160 0
v -96 -160 0
v -128 -160 0
v -160 -160 0
v -192 -160 0
v -224 -160 0
v -256 -160 0
v -288 -160 0
v -320 -160 0
v -352 -160 0
v -384 -160 0
v -416 -160 0
v -448 -160 0
v -480 -160 0
v -512 -160 0
v 0 -192 0
v -32 -192 0
v -64 -192 0
v -96 -192 0
v -128 -192 0
v -160 -192 0
v -192 -192 0
v -224 -192 0
v -256 -192 0
v -288 -192 0
v -320 -192 0
v -352 -192 0
v -384 -192 0
v -416 -192 0
v -448 -192 0
v -480 -192 0
v -512 -192 0
v 0 -224 0
v -32 -224 0
v -64 -224 0
v -96 -224 0
v -128 -224 0
v -160 -224 0
v -192 -224 0
v -224 -224 0
v -256 -224 0
v -288 -224 0
v -320 -224 0
v -352 -224 0
v -384 -224 0
v -416 -224 0
v -448 -224 0
v -480 -224 0
v -512 -224 0
v 0 -256 0
v -32 -256 0
v -64 -256 0
v -96 -256 0
v -128 -256 0
v -160 -256 0
v -192 -256 0
v -224 -256 0
v -256 -256 0
v -288 -256 0
v -320 -256 0
v -352 -256 0
v -384 -256 0
v -416 -256 0
v -448 -256 0
v -480 -256 0
v -512 -256 0
v 0 -288 0
v -32 -288 0
v -64 -288 0
v -96 -288 0
v -128 -288 0
v -160 -288 0
v -192 -288 0
v -224 -288 0
v -256 -288 0
v -288 -288 0
v -320 -288 0
v -352 -288 0
v -384 -288 0
v -416 -288 0
v -448 -288 0
v -480 -288 0
v -512 -288 0
v 0 -320 0
v -32 -320 0
v -64 -320 0
v -96 -320 0
v -128 -320 0
v -160 -320 0
v -192 -320 0
v -224 -320 0
v -256 -320 0
v -288 -320 0
v -320 -320 0
v -352 -320 0
v -384 -320 0
v -416 -320 0
v -448 -320 0
v -480 -320 0
v -512 -320 0
v 0 -352 0
v -32 -352 0
v -64 -352 0
v -96 -352 0
v -128 -352 0
v -160 -352 0
v -192 -352 0
v -224 -352 0
v -256 -352 0
v -288 -352 0
v -320 -352 0
v -352 -352 0
v -384 -352 0
v -416 -352 0
v -448 -352 0
v -480 -352 0
v -512 -352 0

# Texture cooridinates (Count = 48)
vt 0.6000122 0.8000122
vt 0.6999878 0.8000122
vt 0.6999878 0.8999878
vt 0.6000122 0.8999878
vt 0.7000122 0.8000122
vt 0.7999878 0.8000122
vt 0.7999878 0.8999878
vt 0.7000122 0.8999878
vt 0.8000122 0.8000122
vt 0.8999878 0.8000122
vt 0.8999878 0.8999878
vt 0.8000122 0.8999878
vt 0.6000122 0.7000122
vt 0.6999878 0.7000122
vt 0.6999878 0.7999878
vt 0.6000122 0.7999878
vt 0.5000122 0.7000122
vt 0.5999878 0.7000122
vt 0.5999878 0.7999878
vt 0.5000122 0.7999878
vt 0.7000122 0.7000122
vt 0.7999878 0.7000122
vt 0.7999878 0.7999878
vt 0.7000122 0.7999878
vt 0.8000122 0.7000122
vt 0.8999878 0.7000122
vt 0.8999878 0.7999878
vt 0.8000122 0.7999878
vt 0.6000122 0.6000122
vt 0.6999878 0.6000122
vt 0.6999878 0.6999878
vt 0.6000122 0.6999878
vt 0.7000122 0.6000122
vt 0.7999878 0.6000122
vt 0.7999878 0.6999878
vt 0.7000122 0.6999878
vt 0.8000122 0.6000122
vt 0.8999878 0.6000122
vt 0.8999878 0.6999878
vt 0.8000122 0.6999878
vt 4.069011E-05 6.103516E-05
vt 0.3332926 6.103516E-05
vt 0.3332926 0.499939
vt 4.069011E-05 0.499939
vt 4.069011E-05 0.500061
vt 0.3332926 0.500061
vt 0.3332926 0.999939
vt 4.069011E-05 0.999939

# Normal
vn 0 0 -1

# Groups (Count = 2)

g mesh_0001
f 1/1/1 2/2/1 3/3/1 4/4/1
f 2/5/1 5/6/1 6/7/1 3/8/1
f 5/5/1 7/6/1 8/7/1 6/8/1
f 7/5/1 9/6/1 10/7/1 8/8/1
f 9/5/1 11/6/1 12/7/1 10/8/1
f 11/5/1 13/6/1 14/7/1 12/8/1
f 13/5/1 15/6/1 16/7/1 14/8/1
f 15/5/1 17/6/1 18/7/1 16/8/1
f 17/5/1 19/6/1 20/7/1 18/8/1
f 19/5/1 21/6/1 22/7/1 20/8/1
f 21/5/1 23/6/1 24/7/1 22/8/1
f 23/5/1 25/6/1 26/7/1 24/8/1
f 25/5/1 27/6/1 28/7/1 26/8/1
f 27/5/1 29/6/1 30/7/1 28/8/1
f 29/5/1 31/6/1 32/7/1 30/8/1
f 31/9/1 33/10/1 34/11/1 32/12/1
f 35/13/1 36/14/1 2/15/1 1/16/1
f 36/17/1 37/18/1 5/19/1 2/20/1
f 37/17/1 38/18/1 7/19/1 5/20/1
f 38/21/1 39/22/1 9/23/1 7/24/1
f 39/21/1 40/22/1 11/23/1 9/24/1
f 40/21/1 41/22/1 13/23/1 11/24/1
f 41/21/1 42/22/1 15/23/1 13/24/1
f 42/21/1 43/22/1 17/23/1 15/24/1
f 43/21/1 44/22/1 19/23/1 17/24/1
f 44/21/1 45/22/1 21/23/1 19/24/1
f 45/21/1 46/22/1 23/23/1 21/24/1
f 46/21/1 47/22/1 25/23/1 23/24/1
f 47/21/1 48/22/1 27/23/1 25/24/1
f 48/21/1 49/22/1 29/23/1 27/24/1
f 49/21/1 50/22/1 31/23/1 29/24/1
f 50/25/1 51/26/1 33/27/1 31/28/1
f 52/13/1 53/14/1 36/15/1 35/16/1
f 53/17/1 54/18/1 37/19/1 36/20/1
f 54/17/1 55/18/1 38/19/1 37/20/1
f 55/21/1 56/22/1 39/23/1 38/24/1
f 56/21/1 57/22/1 40/23/1 39/24/1
f 57/21/1 58/22/1 41/23/1 40/24/1
f 58/21/1 59/22/1 42/23/1 41/24/1
f 59/21/1 60/22/1 43/23/1 42/24/1
f 60/21/1 61/22/1 44/23/1 43/24/1
f 61/21/1 62/22/1 45/23/1 44/24/1
f 62/21/1 63/22/1 46/23/1 45/24/1
f 63/21/1 64/22/1 47/23/1 46/24/1
f 64/21/1 65/22/1 48/23/1 47/24/1
f 65/21/1 66/22/1 49/23/1 48/24/1
f 66/21/1 67/22/1 50/23/1 49/24/1
f 67/25/1 68/26/1 51/27/1 50/28/1
f 69/13/1 70/14/1 53/15/1 52/16/1
f 70/21/1 71/22/1 54/23/1 53/24/1
f 71/21/1 72/22/1 55/23/1 54/24/1
f 72/21/1 73/22/1 56/23/1 55/24/1
f 73/21/1 74/22/1 57/23/1 56/24/1
f 74/21/1 75/22/1 58/23/1 57/24/1
f 75/21/1 76/22/1 59/23/1 58/24/1
f 76/21/1 77/22/1 60/23/1 59/24/1
f 77/21/1 78/22/1 61/23/1 60/24/1
f 78/21/1 79/22/1 62/23/1 61/24/1
f 79/21/1 80/22/1 63/23/1 62/24/1
f 80/21/1 81/22/1 64/23/1 63/24/1
f 81/21/1 82/22/1 65/23/1 64/24/1
f 82/21/1 83/22/1 66/23/1 65/24/1
f 83/21/1 84/22/1 67/23/1 66/24/1
f 84/25/1 85/26/1 68/27/1 67/28/1
f 86/13/1 87/14/1 70/15/1 69/16/1
f 87/21/1 88/22/1 71/23/1 70/24/1
f 88/21/1 89/22/1 72/23/1 71/24/1
f 89/21/1 90/22/1 73/23/1 72/24/1
f 90/21/1 91/22/1 74/23/1 73/24/1
f 91/21/1 92/22/1 75/23/1 74/24/1
f 92/21/1 93/22/1 76/23/1 75/24/1
f 93/21/1 94/22/1 77/23/1 76/24/1
f 94/21/1 95/22/1 78/23/1 77/24/1
f 95/21/1 96/22/1 79/23/1 78/24/1
f 96/21/1 97/22/1 80/23/1 79/24/1
f 97/21/1 98/22/1 81/23/1 80/24/1
f 98/21/1 99/22/1 82/23/1 81/24/1
f 99/21/1 100/22/1 83/23/1 82/24/1
f 100/21/1 101/22/1 84/23/1 83/24/1
f 101/25/1 102/26/1 85/27/1 84/28/1
f 103/13/1 104/14/1 87/15/1 86/16/1
f 104/21/1 105/22/1 88/23/1 87/24/1
f 105/21/1 106/22/1 89/23/1 88/24/1
f 106/21/1 107/22/1 90/23/1 89/24/1
f 107/21/1 108/22/1 91/23/1 90/24/1
f 108/21/1 109/22/1 92/23/1 91/24/1
f 109/21/1 110/22/1 93/23/1 92/24/1
f 110/21/1 111/22/1 94/23/1 93/24/1
f 111/21/1 112/22/1 95/23/1 94/24/1
f 112/21/1 113/22/1 96/23/1 95/24/1
f 113/21/1 114/22/1 97/23/1 96/24/1
f 114/21/1 115/22/1 98/23/1 97/24/1
f 115/21/1 116/22/1 99/23/1 98/24/1
f 116/21/1 117/22/1 100/23/1 99/24/1
f 117/21/1 118/22/1 101/23/1 100/24/1
f 118/25/1 119/26/1 102/27/1 101/28/1
f 120/13/1 121/14/1 104/15/1 103/16/1
f 121/21/1 122/22/1 105/23/1 104/24/1
f 122/21/1 123/22/1 106/23/1 105/24/1
f 123/21/1 124/22/1 107/23/1 106/24/1
f 124/21/1 125/22/1 108/23/1 107/24/1
f 125/21/1 126/22/1 109/23/1 108/24/1
f 126/21/1 127/22/1 110/23/1 109/24/1
f 127/21/1 128/22/1 111/23/1 110/24/1
f 128/21/1 129/22/1 112/23/1 111/24/1
f 129/21/1 130/22/1 113/23/1 112/24/1
f 130/21/1 131/22/1 114/23/1 113/24/1
f 131/21/1 132/22/1 115/23/1 114/24/1
f 132/21/1 133/22/1 116/23/1 115/24/1
f 133/21/1 134/22/1 117/23/1 116/24/1
f 134/21/1 135/22/1 118/23/1 117/24/1
f 135/25/1 136/26/1 119/27/1 118/28/1
f 137/13/1 138/14/1 121/15/1 120/16/1
f 138/21/1 139/22/1 122/23/1 121/24/1
f 139/21/1 140/22/1 123/23/1 122/24/1
f 140/21/1 141/22/1 124/23/1 123/24/1
f 141/21/1 142/22/1 125/23/1 124/24/1
f 142/21/1 143/22/1 126/23/1 125/24/1
f 143/21/1 144/22/1 127/23/1 126/24/1
f 144/21/1 145/22/1 128/23/1 127/24/1
f 145/21/1 146/22/1 129/23/1 128/24/1
f 146/21/1 147/22/1 130/23/1 129/24/1
f 147/21/1 148/22/1 131/23/1 130/24/1
f 148/21/1 149/22/1 132/23/1 131/24/1
f 149/21/1 150/22/1 133/23/1 132/24/1
f 150/21/1 151/22/1 134/23/1 133/24/1
f 151/21/1 152/22/1 135/23/1 134/24/1
f 152/25/1 153/26/1 136/27/1 135/28/1
f 154/13/1 155/14/1 138/15/1 137/16/1
f 155/21/1 156/22/1 139/23/1 138/24/1
f 156/21/1 157/22/1 140/23/1 139/24/1
f 157/21/1 158/22/1 141/23/1 140/24/1
f 158/21/1 159/22/1 142/23/1 141/24/1
f 159/21/1 160/22/1 143/23/1 142/24/1
f 160/21/1 161/22/1 144/23/1 143/24/1
f 161/21/1 162/22/1 145/23/1 144/24/1
f 162/21/1 163/22/1 146/23/1 145/24/1
f 163/21/1 164/22/1 147/23/1 146/24/1
f 164/21/1 165/22/1 148/23/1 147/24/1
f 165/21/1 166/22/1 149/23/1 148/24/1
f 166/21/1 167/22/1 150/23/1 149/24/1
f 167/17/1 168/18/1 151/19/1 150/20/1
f 168/17/1 169/18/1 152/19/1 151/20/1
f 169/25/1 170/26/1 153/27/1 152/28/1
f 171/13/1 172/14/1 155/15/1 154/16/1
f 172/21/1 173/22/1 156/23/1 155/24/1
f 173/21/1 174/22/1 157/23/1 156/24/1
f 174/21/1 175/22/1 158/23/1 157/24/1
f 175/21/1 176/22/1 159/23/1 158/24/1
f 176/21/1 177/22/1 160/23/1 159/24/1
f 177/21/1 178/22/1 161/23/1 160/24/1
f 178/21/1 179/22/1 162/23/1 161/24/1
f 179/21/1 180/22/1 163/23/1 162/24/1
f 180/21/1 181/22/1 164/23/1 163/24/1
f 181/21/1 182/22/1 165/23/1 164/24/1
f 182/21/1 183/22/1 166/23/1 165/24/1
f 183/21/1 184/22/1 167/23/1 166/24/1
f 184/17/1 185/18/1 168/19/1 167/20/1
f 185/17/1 186/18/1 169/19/1 168/20/1
f 186/25/1 187/26/1 170/27/1 169/28/1
f 188/29/1 189/30/1 172/31/1 171/32/1
f 189/33/1 190/34/1 173/35/1 172/36/1
f 190/33/1 191/34/1 174/35/1 173/36/1
f 191/33/1 192/34/1 175/35/1 174/36/1
f 192/33/1 193/34/1 176/35/1 175/36/1
f 193/33/1 194/34/1 177/35/1 176/36/1
f 194/33/1 195/34/1 178/35/1 177/36/1
f 195/33/1 196/34/1 179/35/1 178/36/1
f 196/33/1 197/34/1 180/35/1 179/36/1
f 197/33/1 198/34/1 181/35/1 180/36/1
f 198/33/1 199/34/1 182/35/1 181/36/1
f 199/33/1 200/34/1 183/35/1 182/36/1
f 200/33/1 201/34/1 184/35/1 183/36/1
f 201/33/1 202/34/1 185/35/1 184/36/1
f 202/33/1 203/34/1 186/35/1 185/36/1
f 203/37/1 204/38/1 187/39/1 186/40/1

g mesh_0002
f 90/41/1 91/42/1 74/43/1 73/44/1
f 94/45/1 95/46/1 78/47/1 77/48/1
f 98/41/1 99/42/1 82/43/1 81/44/1

