# Wavefront OBJ file automatically generated by Tiled2Unity

# Vertices (Count = 187)
v 0 -32 0
v -32 -32 0
v -32 0 0
v 0 0 0
v -64 -32 0
v -64 0 0
v -96 -32 0
v -96 0 0
v -128 -32 0
v -128 0 0
v -160 -32 0
v -160 0 0
v -192 -32 0
v -192 0 0
v -224 -32 0
v -224 0 0
v -256 -32 0
v -256 0 0
v -288 -32 0
v -288 0 0
v -320 -32 0
v -320 0 0
v -352 -32 0
v -352 0 0
v -384 -32 0
v -384 0 0
v -416 -32 0
v -416 0 0
v -448 -32 0
v -448 0 0
v -480 -32 0
v -480 0 0
v -512 -32 0
v -512 0 0
v 0 -64 0
v -32 -64 0
v -64 -64 0
v -96 -64 0
v -128 -64 0
v -160 -64 0
v -192 -64 0
v -224 -64 0
v -256 -64 0
v -288 -64 0
v -320 -64 0
v -352 -64 0
v -384 -64 0
v -416 -64 0
v -448 -64 0
v -480 -64 0
v -512 -64 0
v 0 -96 0
v -32 -96 0
v -64 -96 0
v -96 -96 0
v -128 -96 0
v -160 -96 0
v -192 -96 0
v -224 -96 0
v -256 -96 0
v -288 -96 0
v -320 -96 0
v -352 -96 0
v -384 -96 0
v -416 -96 0
v -448 -96 0
v -480 -96 0
v -512 -96 0
v 0 -128 0
v -32 -128 0
v -64 -128 0
v -96 -128 0
v -128 -128 0
v -160 -128 0
v -192 -128 0
v -224 -128 0
v -256 -128 0
v -288 -128 0
v -320 -128 0
v -352 -128 0
v -384 -128 0
v -416 -128 0
v -448 -128 0
v -480 -128 0
v -512 -128 0
v 0 -160 0
v -32 -160 0
v -64 -160 0
v -96 -160 0
v -128 -160 0
v -160 -160 0
v -192 -160 0
v -224 -160 0
v -256 -160 0
v -288 -160 0
v -320 -160 0
v -352 -160 0
v -384 -160 0
v -416 -160 0
v -448 -160 0
v -480 -160 0
v -512 -160 0
v 0 -192 0
v -32 -192 0
v -64 -192 0
v -96 -192 0
v -128 -192 0
v -160 -192 0
v -192 -192 0
v -224 -192 0
v -256 -192 0
v -288 -192 0
v -320 -192 0
v -352 -192 0
v -384 -192 0
v -416 -192 0
v -448 -192 0
v -480 -192 0
v -512 -192 0
v 0 -224 0
v -32 -224 0
v -64 -224 0
v -96 -224 0
v -128 -224 0
v -160 -224 0
v -192 -224 0
v -224 -224 0
v -256 -224 0
v -288 -224 0
v -320 -224 0
v -352 -224 0
v -384 -224 0
v -416 -224 0
v -448 -224 0
v -480 -224 0
v -512 -224 0
v 0 -256 0
v -32 -256 0
v -64 -256 0
v -96 -256 0
v -128 -256 0
v -160 -256 0
v -192 -256 0
v -224 -256 0
v -256 -256 0
v -288 -256 0
v -320 -256 0
v -352 -256 0
v -384 -256 0
v -416 -256 0
v -448 -256 0
v -480 -256 0
v -512 -256 0
v 0 -288 0
v -32 -288 0
v -64 -288 0
v -96 -288 0
v -128 -288 0
v -160 -288 0
v -192 -288 0
v -224 -288 0
v -256 -288 0
v -288 -288 0
v -320 -288 0
v -352 -288 0
v -384 -288 0
v -416 -288 0
v -448 -288 0
v -480 -288 0
v -512 -288 0
v 0 -320 0
v -32 -320 0
v -64 -320 0
v -96 -320 0
v -128 -320 0
v -160 -320 0
v -192 -320 0
v -224 -320 0
v -256 -320 0
v -288 -320 0
v -320 -320 0
v -352 -320 0
v -384 -320 0
v -416 -320 0
v -448 -320 0
v -480 -320 0
v -512 -320 0

# Texture cooridinates (Count = 8)
vt 0.8571486 0.7391357
vt 0.9047561 0.7391357
vt 0.9047561 0.7826034
vt 0.8571486 0.7826034
vt 0.4285772 0.6521792
vt 0.4761847 0.6521792
vt 0.4761847 0.6956469
vt 0.4285772 0.6956469

# Normal
vn 0 0 -1

# Groups (Count = 1)

g mesh_0001
f 1/1/1 2/2/1 3/3/1 4/4/1
f 2/5/1 5/6/1 6/7/1 3/8/1
f 5/1/1 7/2/1 8/3/1 6/4/1
f 7/1/1 9/2/1 10/3/1 8/4/1
f 9/5/1 11/6/1 12/7/1 10/8/1
f 11/1/1 13/2/1 14/3/1 12/4/1
f 13/1/1 15/2/1 16/3/1 14/4/1
f 15/1/1 17/2/1 18/3/1 16/4/1
f 17/1/1 19/2/1 20/3/1 18/4/1
f 19/1/1 21/2/1 22/3/1 20/4/1
f 21/1/1 23/2/1 24/3/1 22/4/1
f 23/1/1 25/2/1 26/3/1 24/4/1
f 25/1/1 27/2/1 28/3/1 26/4/1
f 27/1/1 29/2/1 30/3/1 28/4/1
f 29/1/1 31/2/1 32/3/1 30/4/1
f 31/5/1 33/6/1 34/7/1 32/8/1
f 35/1/1 36/2/1 2/3/1 1/4/1
f 36/5/1 37/6/1 5/7/1 2/8/1
f 37/1/1 38/2/1 7/3/1 5/4/1
f 38/1/1 39/2/1 9/3/1 7/4/1
f 39/5/1 40/6/1 11/7/1 9/8/1
f 40/1/1 41/2/1 13/3/1 11/4/1
f 41/5/1 42/6/1 15/7/1 13/8/1
f 42/5/1 43/6/1 17/7/1 15/8/1
f 43/5/1 44/6/1 19/7/1 17/8/1
f 44/5/1 45/6/1 21/7/1 19/8/1
f 45/5/1 46/6/1 23/7/1 21/8/1
f 46/5/1 47/6/1 25/7/1 23/8/1
f 47/5/1 48/6/1 27/7/1 25/8/1
f 48/1/1 49/2/1 29/3/1 27/4/1
f 49/1/1 50/2/1 31/3/1 29/4/1
f 50/5/1 51/6/1 33/7/1 31/8/1
f 52/1/1 53/2/1 36/3/1 35/4/1
f 53/5/1 54/6/1 37/7/1 36/8/1
f 54/5/1 55/6/1 38/7/1 37/8/1
f 55/5/1 56/6/1 39/7/1 38/8/1
f 56/5/1 57/6/1 40/7/1 39/8/1
f 57/1/1 58/2/1 41/3/1 40/4/1
f 58/5/1 59/6/1 42/7/1 41/8/1
f 59/1/1 60/2/1 43/3/1 42/4/1
f 60/1/1 61/2/1 44/3/1 43/4/1
f 61/1/1 62/2/1 45/3/1 44/4/1
f 62/1/1 63/2/1 46/3/1 45/4/1
f 63/1/1 64/2/1 47/3/1 46/4/1
f 64/5/1 65/6/1 48/7/1 47/8/1
f 65/1/1 66/2/1 49/3/1 48/4/1
f 66/1/1 67/2/1 50/3/1 49/4/1
f 67/5/1 68/6/1 51/7/1 50/8/1
f 69/1/1 70/2/1 53/3/1 52/4/1
f 70/1/1 71/2/1 54/3/1 53/4/1
f 71/1/1 72/2/1 55/3/1 54/4/1
f 72/1/1 73/2/1 56/3/1 55/4/1
f 73/5/1 74/6/1 57/7/1 56/8/1
f 74/1/1 75/2/1 58/3/1 57/4/1
f 75/5/1 76/6/1 59/7/1 58/8/1
f 76/5/1 77/6/1 60/7/1 59/8/1
f 77/5/1 78/6/1 61/7/1 60/8/1
f 78/5/1 79/6/1 62/7/1 61/8/1
f 79/1/1 80/2/1 63/3/1 62/4/1
f 80/1/1 81/2/1 64/3/1 63/4/1
f 81/5/1 82/6/1 65/7/1 64/8/1
f 82/1/1 83/2/1 66/3/1 65/4/1
f 83/1/1 84/2/1 67/3/1 66/4/1
f 84/5/1 85/6/1 68/7/1 67/8/1
f 86/1/1 87/2/1 70/3/1 69/4/1
f 87/1/1 88/2/1 71/3/1 70/4/1
f 88/1/1 89/2/1 72/3/1 71/4/1
f 89/1/1 90/2/1 73/3/1 72/4/1
f 90/5/1 91/6/1 74/7/1 73/8/1
f 91/1/1 92/2/1 75/3/1 74/4/1
f 92/1/1 93/2/1 76/3/1 75/4/1
f 93/1/1 94/2/1 77/3/1 76/4/1
f 94/1/1 95/2/1 78/3/1 77/4/1
f 95/5/1 96/6/1 79/7/1 78/8/1
f 96/1/1 97/2/1 80/3/1 79/4/1
f 97/1/1 98/2/1 81/3/1 80/4/1
f 98/5/1 99/6/1 82/7/1 81/8/1
f 99/1/1 100/2/1 83/3/1 82/4/1
f 100/5/1 101/6/1 84/7/1 83/8/1
f 101/5/1 102/6/1 85/7/1 84/8/1
f 103/5/1 104/6/1 87/7/1 86/8/1
f 104/5/1 105/6/1 88/7/1 87/8/1
f 105/5/1 106/6/1 89/7/1 88/8/1
f 106/5/1 107/6/1 90/7/1 89/8/1
f 107/5/1 108/6/1 91/7/1 90/8/1
f 108/1/1 109/2/1 92/3/1 91/4/1
f 109/5/1 110/6/1 93/7/1 92/8/1
f 110/5/1 111/6/1 94/7/1 93/8/1
f 111/5/1 112/6/1 95/7/1 94/8/1
f 112/5/1 113/6/1 96/7/1 95/8/1
f 113/1/1 114/2/1 97/3/1 96/4/1
f 114/1/1 115/2/1 98/3/1 97/4/1
f 115/5/1 116/6/1 99/7/1 98/8/1
f 116/1/1 117/2/1 100/3/1 99/4/1
f 117/5/1 118/6/1 101/7/1 100/8/1
f 118/1/1 119/2/1 102/3/1 101/4/1
f 120/1/1 121/2/1 104/3/1 103/4/1
f 121/5/1 122/6/1 105/7/1 104/8/1
f 122/1/1 123/2/1 106/3/1 105/4/1
f 123/1/1 124/2/1 107/3/1 106/4/1
f 124/1/1 125/2/1 108/3/1 107/4/1
f 125/1/1 126/2/1 109/3/1 108/4/1
f 126/5/1 127/6/1 110/7/1 109/8/1
f 127/1/1 128/2/1 111/3/1 110/4/1
f 128/1/1 129/2/1 112/3/1 111/4/1
f 129/1/1 130/2/1 113/3/1 112/4/1
f 130/1/1 131/2/1 114/3/1 113/4/1
f 131/1/1 132/2/1 115/3/1 114/4/1
f 132/5/1 133/6/1 116/7/1 115/8/1
f 133/5/1 134/6/1 117/7/1 116/8/1
f 134/5/1 135/6/1 118/7/1 117/8/1
f 135/1/1 136/2/1 119/3/1 118/4/1
f 137/5/1 138/6/1 121/7/1 120/8/1
f 138/5/1 139/6/1 122/7/1 121/8/1
f 139/5/1 140/6/1 123/7/1 122/8/1
f 140/5/1 141/6/1 124/7/1 123/8/1
f 141/5/1 142/6/1 125/7/1 124/8/1
f 142/5/1 143/6/1 126/7/1 125/8/1
f 143/5/1 144/6/1 127/7/1 126/8/1
f 144/1/1 145/2/1 128/3/1 127/4/1
f 145/5/1 146/6/1 129/7/1 128/8/1
f 146/5/1 147/6/1 130/7/1 129/8/1
f 147/5/1 148/6/1 131/7/1 130/8/1
f 148/1/1 149/2/1 132/3/1 131/4/1
f 149/1/1 150/2/1 133/3/1 132/4/1
f 150/5/1 151/6/1 134/7/1 133/8/1
f 151/1/1 152/2/1 135/3/1 134/4/1
f 152/1/1 153/2/1 136/3/1 135/4/1
f 154/5/1 155/6/1 138/7/1 137/8/1
f 155/1/1 156/2/1 139/3/1 138/4/1
f 156/1/1 157/2/1 140/3/1 139/4/1
f 157/1/1 158/2/1 141/3/1 140/4/1
f 158/1/1 159/2/1 142/3/1 141/4/1
f 159/1/1 160/2/1 143/3/1 142/4/1
f 160/5/1 161/6/1 144/7/1 143/8/1
f 161/1/1 162/2/1 145/3/1 144/4/1
f 162/1/1 163/2/1 146/3/1 145/4/1
f 163/1/1 164/2/1 147/3/1 146/4/1
f 164/5/1 165/6/1 148/7/1 147/8/1
f 165/1/1 166/2/1 149/3/1 148/4/1
f 166/1/1 167/2/1 150/3/1 149/4/1
f 167/5/1 168/6/1 151/7/1 150/8/1
f 168/1/1 169/2/1 152/3/1 151/4/1
f 169/1/1 170/2/1 153/3/1 152/4/1
f 171/5/1 172/6/1 155/7/1 154/8/1
f 172/5/1 173/6/1 156/7/1 155/8/1
f 173/5/1 174/6/1 157/7/1 156/8/1
f 174/5/1 175/6/1 158/7/1 157/8/1
f 175/5/1 176/6/1 159/7/1 158/8/1
f 176/1/1 177/2/1 160/3/1 159/4/1
f 177/5/1 178/6/1 161/7/1 160/8/1
f 178/5/1 179/6/1 162/7/1 161/8/1
f 179/5/1 180/6/1 163/7/1 162/8/1
f 180/5/1 181/6/1 164/7/1 163/8/1
f 181/5/1 182/6/1 165/7/1 164/8/1
f 182/1/1 183/2/1 166/3/1 165/4/1
f 183/1/1 184/2/1 167/3/1 166/4/1
f 184/5/1 185/6/1 168/7/1 167/8/1
f 185/1/1 186/2/1 169/3/1 168/4/1
f 186/1/1 187/2/1 170/3/1 169/4/1

