# Wavefront OBJ file automatically generated by Tiled2Unity

# Vertices (Count = 187)
v 0 -32 0
v -32 -32 0
v -32 0 0
v 0 0 0
v -64 -32 0
v -64 0 0
v -96 -32 0
v -96 0 0
v -128 -32 0
v -128 0 0
v -160 -32 0
v -160 0 0
v -192 -32 0
v -224 -32 0
v -224 0 0
v -192 0 0
v -256 -32 0
v -256 0 0
v -288 -32 0
v -288 0 0
v -320 -32 0
v -320 0 0
v -352 -32 0
v -352 0 0
v -384 -32 0
v -384 0 0
v -416 -32 0
v -416 0 0
v -448 -32 0
v -448 0 0
v -480 -32 0
v -480 0 0
v -512 -32 0
v -512 0 0
v 0 -64 0
v -32 -64 0
v -64 -64 0
v -96 -64 0
v -128 -64 0
v -160 -64 0
v -192 -64 0
v -224 -64 0
v -256 -64 0
v -288 -64 0
v -320 -64 0
v -352 -64 0
v -384 -64 0
v -416 -64 0
v -448 -64 0
v -480 -64 0
v -512 -64 0
v 0 -96 0
v -32 -96 0
v -64 -96 0
v -96 -96 0
v -128 -96 0
v -160 -96 0
v -192 -96 0
v -224 -96 0
v -256 -96 0
v -288 -96 0
v -320 -96 0
v -352 -96 0
v -384 -96 0
v -416 -96 0
v -448 -96 0
v -480 -96 0
v -512 -96 0
v 0 -128 0
v -32 -128 0
v -64 -128 0
v -96 -128 0
v -128 -128 0
v -160 -128 0
v -192 -128 0
v -224 -128 0
v -256 -128 0
v -288 -128 0
v -320 -128 0
v -352 -128 0
v -384 -128 0
v -416 -128 0
v -448 -128 0
v -480 -128 0
v -512 -128 0
v 0 -160 0
v -32 -160 0
v -64 -160 0
v -96 -160 0
v -128 -160 0
v -160 -160 0
v -192 -160 0
v -224 -160 0
v -256 -160 0
v -288 -160 0
v -320 -160 0
v -352 -160 0
v -384 -160 0
v -416 -160 0
v -448 -160 0
v -480 -160 0
v -512 -160 0
v 0 -192 0
v -32 -192 0
v -64 -192 0
v -96 -192 0
v -128 -192 0
v -160 -192 0
v -192 -192 0
v -224 -192 0
v -256 -192 0
v -320 -192 0
v -352 -192 0
v -384 -192 0
v -416 -192 0
v -448 -192 0
v -480 -192 0
v -512 -192 0
v 0 -224 0
v -32 -224 0
v -64 -224 0
v -96 -224 0
v -128 -224 0
v -160 -224 0
v -192 -224 0
v -224 -224 0
v -256 -224 0
v -288 -224 0
v -288 -192 0
v -320 -224 0
v -352 -224 0
v -384 -224 0
v -416 -224 0
v -448 -224 0
v -480 -224 0
v -512 -224 0
v 0 -256 0
v -32 -256 0
v -64 -256 0
v -96 -256 0
v -128 -256 0
v -160 -256 0
v -192 -256 0
v -224 -256 0
v -256 -256 0
v -288 -256 0
v -320 -256 0
v -352 -256 0
v -384 -256 0
v -416 -256 0
v -448 -256 0
v -480 -256 0
v 0 -288 0
v -32 -288 0
v -64 -288 0
v -96 -288 0
v -128 -288 0
v -160 -288 0
v -192 -288 0
v -224 -288 0
v -256 -288 0
v -288 -288 0
v -320 -288 0
v -352 -288 0
v -384 -288 0
v -416 -288 0
v -448 -288 0
v -480 -288 0
v -512 -288 0
v -512 -256 0
v -32 -320 0
v -64 -320 0
v -96 -320 0
v -128 -320 0
v -160 -320 0
v -192 -320 0
v -224 -320 0
v -256 -320 0
v -288 -320 0
v -320 -320 0
v -352 -320 0
v -384 -320 0
v -416 -320 0
v -448 -320 0
v -480 -320 0
v -512 -320 0
v 0 -320 0

# Texture cooridinates (Count = 12)
vt 0.2963144 0.7037218
vt 0.4444264 0.7037218
vt 0.4444264 0.8518338
vt 0.2963144 0.8518338
vt 0.1481662 0.7037218
vt 0.2962782 0.7037218
vt 0.2962782 0.8518338
vt 0.1481662 0.8518338
vt 0.4444625 0.4074255
vt 0.5925745 0.4074255
vt 0.5925745 0.5555375
vt 0.4444625 0.5555375

# Normal
vn 0 0 -1

# Groups (Count = 1)

g mesh_0001
f 1/1/1 2/2/1 3/3/1 4/4/1
f 2/1/1 5/2/1 6/3/1 3/4/1
f 5/1/1 7/2/1 8/3/1 6/4/1
f 7/1/1 9/2/1 10/3/1 8/4/1
f 9/1/1 11/2/1 12/3/1 10/4/1
f 13/1/1 14/2/1 15/3/1 16/4/1
f 14/1/1 17/2/1 18/3/1 15/4/1
f 17/1/1 19/2/1 20/3/1 18/4/1
f 19/1/1 21/2/1 22/3/1 20/4/1
f 21/1/1 23/2/1 24/3/1 22/4/1
f 23/1/1 25/2/1 26/3/1 24/4/1
f 25/1/1 27/2/1 28/3/1 26/4/1
f 27/1/1 29/2/1 30/3/1 28/4/1
f 29/1/1 31/2/1 32/3/1 30/4/1
f 31/1/1 33/2/1 34/3/1 32/4/1
f 35/5/1 36/6/1 2/7/1 1/8/1
f 36/5/1 37/6/1 5/7/1 2/8/1
f 38/5/1 39/6/1 9/7/1 7/8/1
f 39/5/1 40/6/1 11/7/1 9/8/1
f 40/5/1 41/6/1 13/7/1 11/8/1
f 41/5/1 42/6/1 14/7/1 13/8/1
f 42/5/1 43/6/1 17/7/1 14/8/1
f 43/5/1 44/6/1 19/7/1 17/8/1
f 45/5/1 46/6/1 23/7/1 21/8/1
f 46/5/1 47/6/1 25/7/1 23/8/1
f 47/5/1 48/6/1 27/7/1 25/8/1
f 48/5/1 49/6/1 29/7/1 27/8/1
f 50/5/1 51/6/1 33/7/1 31/8/1
f 52/5/1 53/6/1 36/7/1 35/8/1
f 54/5/1 55/6/1 38/7/1 37/8/1
f 55/5/1 56/6/1 39/7/1 38/8/1
f 56/5/1 57/6/1 40/7/1 39/8/1
f 57/5/1 58/6/1 41/7/1 40/8/1
f 58/5/1 59/6/1 42/7/1 41/8/1
f 60/5/1 61/6/1 44/7/1 43/8/1
f 62/5/1 63/6/1 46/7/1 45/8/1
f 64/5/1 65/6/1 48/7/1 47/8/1
f 65/5/1 66/6/1 49/7/1 48/8/1
f 66/5/1 67/6/1 50/7/1 49/8/1
f 67/5/1 68/6/1 51/7/1 50/8/1
f 69/5/1 70/6/1 53/7/1 52/8/1
f 70/5/1 71/6/1 54/7/1 53/8/1
f 71/5/1 72/6/1 55/7/1 54/8/1
f 72/5/1 73/6/1 56/7/1 55/8/1
f 74/5/1 75/6/1 58/7/1 57/8/1
f 75/5/1 76/6/1 59/7/1 58/8/1
f 76/5/1 77/6/1 60/7/1 59/8/1
f 77/5/1 78/6/1 61/7/1 60/8/1
f 78/5/1 79/6/1 62/7/1 61/8/1
f 79/5/1 80/6/1 63/7/1 62/8/1
f 80/5/1 81/6/1 64/7/1 63/8/1
f 81/5/1 82/6/1 65/7/1 64/8/1
f 83/5/1 84/6/1 67/7/1 66/8/1
f 84/5/1 85/6/1 68/7/1 67/8/1
f 86/5/1 87/6/1 70/7/1 69/8/1
f 88/5/1 89/6/1 72/7/1 71/8/1
f 89/5/1 90/6/1 73/7/1 72/8/1
f 90/5/1 91/6/1 74/7/1 73/8/1
f 91/5/1 92/6/1 75/7/1 74/8/1
f 92/5/1 93/6/1 76/7/1 75/8/1
f 93/5/1 94/6/1 77/7/1 76/8/1
f 94/5/1 95/6/1 78/7/1 77/8/1
f 95/5/1 96/6/1 79/7/1 78/8/1
f 96/5/1 97/6/1 80/7/1 79/8/1
f 97/5/1 98/6/1 81/7/1 80/8/1
f 98/5/1 99/6/1 82/7/1 81/8/1
f 99/5/1 100/6/1 83/7/1 82/8/1
f 100/5/1 101/6/1 84/7/1 83/8/1
f 101/5/1 102/6/1 85/7/1 84/8/1
f 103/5/1 104/6/1 87/7/1 86/8/1
f 104/5/1 105/6/1 88/7/1 87/8/1
f 105/5/1 106/6/1 89/7/1 88/8/1
f 106/5/1 107/6/1 90/7/1 89/8/1
f 107/5/1 108/6/1 91/7/1 90/8/1
f 109/5/1 110/6/1 93/7/1 92/8/1
f 110/5/1 111/6/1 94/7/1 93/8/1
f 112/5/1 113/6/1 97/7/1 96/8/1
f 113/5/1 114/6/1 98/7/1 97/8/1
f 115/5/1 116/6/1 100/7/1 99/8/1
f 116/5/1 117/6/1 101/7/1 100/8/1
f 117/5/1 118/6/1 102/7/1 101/8/1
f 119/5/1 120/6/1 104/7/1 103/8/1
f 120/5/1 121/6/1 105/7/1 104/8/1
f 122/5/1 123/6/1 107/7/1 106/8/1
f 123/5/1 124/6/1 108/7/1 107/8/1
f 124/5/1 125/6/1 109/7/1 108/8/1
f 126/5/1 127/6/1 111/7/1 110/8/1
f 127/5/1 128/6/1 129/7/1 111/8/1
f 128/5/1 130/6/1 112/7/1 129/8/1
f 131/5/1 132/6/1 114/7/1 113/8/1
f 132/5/1 133/6/1 115/7/1 114/8/1
f 133/5/1 134/6/1 116/7/1 115/8/1
f 134/5/1 135/6/1 117/7/1 116/8/1
f 135/5/1 136/6/1 118/7/1 117/8/1
f 137/1/1 138/2/1 120/3/1 119/4/1
f 138/1/1 139/2/1 121/3/1 120/4/1
f 139/5/1 140/6/1 122/7/1 121/8/1
f 140/5/1 141/6/1 123/7/1 122/8/1
f 142/5/1 143/6/1 125/7/1 124/8/1
f 143/5/1 144/6/1 126/7/1 125/8/1
f 144/5/1 145/6/1 127/7/1 126/8/1
f 145/5/1 146/6/1 128/7/1 127/8/1
f 146/5/1 147/6/1 130/7/1 128/8/1
f 147/5/1 148/6/1 131/7/1 130/8/1
f 148/5/1 149/6/1 132/7/1 131/8/1
f 149/5/1 150/6/1 133/7/1 132/8/1
f 150/5/1 151/6/1 134/7/1 133/8/1
f 151/5/1 152/6/1 135/7/1 134/8/1
f 153/1/1 154/2/1 138/3/1 137/4/1
f 154/5/1 155/6/1 139/7/1 138/8/1
f 156/5/1 157/6/1 141/7/1 140/8/1
f 157/5/1 158/6/1 142/7/1 141/8/1
f 158/5/1 159/6/1 143/7/1 142/8/1
f 159/5/1 160/6/1 144/7/1 143/8/1
f 161/5/1 162/6/1 146/7/1 145/8/1
f 162/5/1 163/6/1 147/7/1 146/8/1
f 163/5/1 164/6/1 148/7/1 147/8/1
f 165/5/1 166/6/1 150/7/1 149/8/1
f 166/5/1 167/6/1 151/7/1 150/8/1
f 168/5/1 169/6/1 170/7/1 152/8/1
f 171/5/1 172/6/1 155/7/1 154/8/1
f 172/5/1 173/6/1 156/7/1 155/8/1
f 173/5/1 174/6/1 157/7/1 156/8/1
f 174/5/1 175/6/1 158/7/1 157/8/1
f 175/5/1 176/6/1 159/7/1 158/8/1
f 176/5/1 177/6/1 160/7/1 159/8/1
f 177/5/1 178/6/1 161/7/1 160/8/1
f 178/5/1 179/6/1 162/7/1 161/8/1
f 180/5/1 181/6/1 164/7/1 163/8/1
f 181/5/1 182/6/1 165/7/1 164/8/1
f 182/5/1 183/6/1 166/7/1 165/8/1
f 183/5/1 184/6/1 167/7/1 166/8/1
f 184/5/1 185/6/1 168/7/1 167/8/1
f 185/5/1 186/6/1 169/7/1 168/8/1

g mesh_0002
f 11/9/1 13/10/1 16/11/1 12/12/1
f 37/9/1 38/10/1 7/11/1 5/12/1
f 44/9/1 45/10/1 21/11/1 19/12/1
f 49/9/1 50/10/1 31/11/1 29/12/1
f 53/9/1 54/10/1 37/11/1 36/12/1
f 59/9/1 60/10/1 43/11/1 42/12/1
f 61/9/1 62/10/1 45/11/1 44/12/1
f 63/9/1 64/10/1 47/11/1 46/12/1
f 73/9/1 74/10/1 57/11/1 56/12/1
f 82/9/1 83/10/1 66/11/1 65/12/1
f 87/9/1 88/10/1 71/11/1 70/12/1
f 108/9/1 109/10/1 92/11/1 91/12/1
f 111/9/1 129/10/1 95/11/1 94/12/1
f 129/9/1 112/10/1 96/11/1 95/12/1
f 114/9/1 115/10/1 99/11/1 98/12/1
f 121/9/1 122/10/1 106/11/1 105/12/1
f 125/9/1 126/10/1 110/11/1 109/12/1
f 130/9/1 131/10/1 113/11/1 112/12/1
f 141/9/1 142/10/1 124/11/1 123/12/1
f 152/9/1 170/10/1 136/11/1 135/12/1
f 155/9/1 156/10/1 140/11/1 139/12/1
f 160/9/1 161/10/1 145/11/1 144/12/1
f 164/9/1 165/10/1 149/11/1 148/12/1
f 167/9/1 168/10/1 152/11/1 151/12/1
f 187/9/1 171/10/1 154/11/1 153/12/1
f 179/9/1 180/10/1 163/11/1 162/12/1

