# Wavefront OBJ file automatically generated by Tiled2Unity

# Vertices (Count = 187)
v 0 -32 0
v -32 -32 0
v -32 0 0
v 0 0 0
v -160 -32 0
v -192 -32 0
v -192 0 0
v -160 0 0
v -352 -32 0
v -384 -32 0
v -384 0 0
v -352 0 0
v -416 -32 0
v -448 -32 0
v -448 0 0
v -416 0 0
v -480 -32 0
v -480 0 0
v -512 -32 0
v -512 0 0
v -32 -64 0
v -64 -64 0
v -64 -32 0
v -96 -64 0
v -96 -32 0
v -128 -64 0
v -128 -32 0
v -160 -64 0
v -192 -64 0
v -224 -64 0
v -224 -32 0
v -256 -64 0
v -256 -32 0
v -288 -64 0
v -288 -32 0
v -320 -64 0
v -320 -32 0
v -352 -64 0
v -416 -64 0
v -448 -64 0
v -32 -96 0
v -64 -96 0
v -96 -96 0
v -128 -96 0
v -160 -96 0
v -224 -96 0
v -256 -96 0
v -320 -96 0
v -352 -96 0
v -448 -96 0
v -480 -96 0
v -480 -64 0
v -32 -128 0
v -64 -128 0
v -96 -128 0
v -128 -128 0
v -160 -128 0
v -256 -128 0
v -288 -128 0
v -288 -96 0
v -320 -128 0
v -384 -128 0
v -416 -128 0
v -416 -96 0
v -384 -96 0
v -448 -128 0
v 0 -160 0
v -32 -160 0
v 0 -128 0
v -160 -160 0
v -192 -160 0
v -192 -128 0
v -224 -160 0
v -224 -128 0
v -256 -160 0
v -288 -160 0
v -320 -160 0
v -352 -160 0
v -384 -160 0
v -352 -128 0
v -416 -160 0
v -448 -160 0
v -480 -160 0
v -512 -160 0
v -512 -128 0
v -480 -128 0
v -32 -192 0
v -64 -192 0
v -64 -160 0
v -96 -192 0
v -128 -192 0
v -128 -160 0
v -96 -160 0
v -160 -192 0
v -256 -192 0
v -288 -192 0
v -352 -192 0
v -384 -192 0
v -416 -192 0
v -448 -192 0
v -32 -224 0
v -64 -224 0
v -96 -224 0
v -128 -224 0
v -160 -224 0
v -320 -224 0
v -352 -224 0
v -320 -192 0
v -448 -224 0
v -480 -224 0
v -480 -192 0
v -32 -256 0
v -64 -256 0
v -96 -256 0
v -128 -256 0
v -160 -256 0
v -320 -256 0
v -352 -256 0
v -384 -256 0
v -384 -224 0
v -416 -256 0
v -416 -224 0
v -448 -256 0
v -480 -256 0
v -32 -288 0
v -64 -288 0
v -96 -288 0
v -160 -288 0
v -192 -288 0
v -192 -256 0
v -224 -288 0
v -224 -256 0
v 0 -320 0
v -32 -320 0
v 0 -288 0
v -224 -320 0
v -256 -320 0
v -256 -288 0
v -288 -320 0
v -288 -288 0
v -480 -320 0
v -512 -320 0
v -512 -288 0
v -480 -288 0
v -64 0 0
v -96 0 0
v -128 0 0
v -224 0 0
v -256 0 0
v -288 0 0
v -320 0 0
v -512 -64 0
v -320 -288 0
v -352 -288 0
v -384 -288 0
v -416 -288 0
v -448 -288 0
v -64 -320 0
v -96 -320 0
v -128 -320 0
v -128 -288 0
v -160 -320 0
v -192 -320 0
v -320 -320 0
v -352 -320 0
v -384 -320 0
v -416 -320 0
v -448 -320 0
v 0 -64 0
v -384 -64 0
v 0 -96 0
v -192 -96 0
v -512 -96 0
v 0 -192 0
v -224 -192 0
v -512 -192 0
v 0 -224 0
v -224 -224 0
v -256 -224 0
v -512 -224 0
v 0 -256 0
v -256 -256 0
v -512 -256 0
v -192 -192 0
v -192 -224 0
v -288 -224 0
v -288 -256 0

# Texture cooridinates (Count = 16)
vt 0.4000122 0.3333415
vt 0.4999878 0.3333415
vt 0.4999878 0.3999919
vt 0.4000122 0.3999919
vt 0.2000122 0.1333415
vt 0.2999878 0.1333415
vt 0.2999878 0.1999919
vt 0.2000122 0.1999919
vt 0.1000122 0.6666748
vt 0.1999878 0.6666748
vt 0.1999878 0.7333252
vt 0.1000122 0.7333252
vt 0.0001220703 0.0001220703
vt 0.9998779 0.0001220703
vt 0.9998779 0.9998779
vt 0.0001220703 0.9998779

# Normal
vn 0 0 -1

# Groups (Count = 1)

g mesh_0001
f 1/1/1 2/2/1 3/3/1 4/4/1
f 5/1/1 6/2/1 7/3/1 8/4/1
f 9/1/1 10/2/1 11/3/1 12/4/1
f 13/1/1 14/2/1 15/3/1 16/4/1
f 14/1/1 17/2/1 18/3/1 15/4/1
f 17/5/1 19/6/1 20/7/1 18/8/1
f 21/1/1 22/2/1 23/3/1 2/4/1
f 22/1/1 24/2/1 25/3/1 23/4/1
f 24/1/1 26/2/1 27/3/1 25/4/1
f 26/1/1 28/2/1 5/3/1 27/4/1
f 29/1/1 30/2/1 31/3/1 6/4/1
f 30/1/1 32/2/1 33/3/1 31/4/1
f 32/1/1 34/2/1 35/3/1 33/4/1
f 34/1/1 36/2/1 37/3/1 35/4/1
f 36/1/1 38/2/1 9/3/1 37/4/1
f 39/1/1 40/2/1 14/3/1 13/4/1
f 41/1/1 42/2/1 22/3/1 21/4/1
f 42/1/1 43/2/1 24/3/1 22/4/1
f 43/1/1 44/2/1 26/3/1 24/4/1
f 44/1/1 45/2/1 28/3/1 26/4/1
f 46/1/1 47/2/1 32/3/1 30/4/1
f 48/1/1 49/2/1 38/3/1 36/4/1
f 50/1/1 51/2/1 52/3/1 40/4/1
f 53/1/1 54/2/1 42/3/1 41/4/1
f 54/1/1 55/2/1 43/3/1 42/4/1
f 55/1/1 56/2/1 44/3/1 43/4/1
f 56/1/1 57/2/1 45/3/1 44/4/1
f 58/1/1 59/2/1 60/3/1 47/4/1
f 59/1/1 61/2/1 48/3/1 60/4/1
f 62/1/1 63/2/1 64/3/1 65/4/1
f 63/1/1 66/2/1 50/3/1 64/4/1
f 67/1/1 68/2/1 53/3/1 69/4/1
f 70/1/1 71/2/1 72/3/1 57/4/1
f 71/1/1 73/2/1 74/3/1 72/4/1
f 75/1/1 76/2/1 59/3/1 58/4/1
f 76/1/1 77/2/1 61/3/1 59/4/1
f 78/1/1 79/2/1 62/3/1 80/4/1
f 79/1/1 81/2/1 63/3/1 62/4/1
f 81/1/1 82/2/1 66/3/1 63/4/1
f 83/1/1 84/2/1 85/3/1 86/4/1
f 87/1/1 88/2/1 89/3/1 68/4/1
f 90/1/1 91/2/1 92/3/1 93/4/1
f 91/1/1 94/2/1 70/3/1 92/4/1
f 95/1/1 96/2/1 76/3/1 75/4/1
f 97/1/1 98/2/1 79/3/1 78/4/1
f 98/1/1 99/2/1 81/3/1 79/4/1
f 99/1/1 100/2/1 82/3/1 81/4/1
f 101/1/1 102/2/1 88/3/1 87/4/1
f 103/1/1 104/2/1 91/3/1 90/4/1
f 104/1/1 105/2/1 94/3/1 91/4/1
f 106/1/1 107/2/1 97/3/1 108/4/1
f 109/1/1 110/2/1 111/3/1 100/4/1
f 112/1/1 113/2/1 102/3/1 101/4/1
f 114/1/1 115/2/1 104/3/1 103/4/1
f 115/1/1 116/2/1 105/3/1 104/4/1
f 117/1/1 118/2/1 107/3/1 106/4/1
f 118/1/1 119/2/1 120/3/1 107/4/1
f 119/1/1 121/2/1 122/3/1 120/4/1
f 121/1/1 123/2/1 109/3/1 122/4/1
f 123/1/1 124/2/1 110/3/1 109/4/1
f 125/1/1 126/2/1 113/3/1 112/4/1
f 126/1/1 127/2/1 114/3/1 113/4/1
f 128/1/1 129/2/1 130/3/1 116/4/1
f 129/1/1 131/2/1 132/3/1 130/4/1
f 133/9/1 134/10/1 125/11/1 135/12/1
f 136/1/1 137/2/1 138/3/1 131/4/1
f 137/1/1 139/2/1 140/3/1 138/4/1
f 141/1/1 142/2/1 143/3/1 144/4/1

g mesh_0002
f 2/13/1 23/14/1 145/15/1 3/16/1
f 23/13/1 25/14/1 146/15/1 145/16/1
f 25/13/1 27/14/1 147/15/1 146/16/1
f 27/13/1 5/14/1 8/15/1 147/16/1
f 6/13/1 31/14/1 148/15/1 7/16/1
f 31/13/1 33/14/1 149/15/1 148/16/1
f 33/13/1 35/14/1 150/15/1 149/16/1
f 35/13/1 37/14/1 151/15/1 150/16/1
f 37/13/1 9/14/1 12/15/1 151/16/1
f 52/13/1 152/14/1 19/15/1 17/16/1
f 47/13/1 60/14/1 34/15/1 32/16/1
f 60/13/1 48/14/1 36/15/1 34/16/1
f 68/13/1 89/14/1 54/15/1 53/16/1
f 89/13/1 93/14/1 55/15/1 54/16/1
f 93/13/1 92/14/1 56/15/1 55/16/1
f 92/13/1 70/14/1 57/15/1 56/16/1
f 107/13/1 120/14/1 98/15/1 97/16/1
f 120/13/1 122/14/1 99/15/1 98/16/1
f 122/13/1 109/14/1 100/15/1 99/16/1
f 153/13/1 154/14/1 118/15/1 117/16/1
f 154/13/1 155/14/1 119/15/1 118/16/1
f 155/13/1 156/14/1 121/15/1 119/16/1
f 156/13/1 157/14/1 123/15/1 121/16/1
f 157/13/1 144/14/1 124/15/1 123/16/1
f 134/13/1 158/14/1 126/15/1 125/16/1
f 158/13/1 159/14/1 127/15/1 126/16/1
f 159/13/1 160/14/1 161/15/1 127/16/1
f 160/13/1 162/14/1 128/15/1 161/16/1
f 162/13/1 163/14/1 129/15/1 128/16/1
f 163/13/1 136/14/1 131/15/1 129/16/1
f 139/13/1 164/14/1 153/15/1 140/16/1
f 164/13/1 165/14/1 154/15/1 153/16/1
f 165/13/1 166/14/1 155/15/1 154/16/1
f 166/13/1 167/14/1 156/15/1 155/16/1
f 167/13/1 168/14/1 157/15/1 156/16/1
f 168/13/1 141/14/1 144/15/1 157/16/1

g mesh_0003
f 10/13/1 13/14/1 16/15/1 11/16/1
f 169/13/1 21/14/1 2/15/1 1/16/1
f 170/13/1 39/14/1 13/15/1 10/16/1
f 40/13/1 52/14/1 17/15/1 14/16/1
f 171/13/1 41/14/1 21/15/1 169/16/1
f 172/13/1 46/14/1 30/15/1 29/16/1
f 65/13/1 64/14/1 39/15/1 170/16/1
f 51/13/1 173/14/1 152/15/1 52/16/1
f 69/13/1 53/14/1 41/15/1 171/16/1
f 72/13/1 74/14/1 46/15/1 172/16/1
f 74/13/1 58/14/1 47/15/1 46/16/1
f 66/13/1 86/14/1 51/15/1 50/16/1
f 86/13/1 85/14/1 173/15/1 51/16/1
f 73/13/1 75/14/1 58/15/1 74/16/1
f 82/13/1 83/14/1 86/15/1 66/16/1
f 174/13/1 87/14/1 68/15/1 67/16/1
f 88/13/1 90/14/1 93/15/1 89/16/1
f 175/13/1 95/14/1 75/15/1 73/16/1
f 100/13/1 111/14/1 83/15/1 82/16/1
f 111/13/1 176/14/1 84/15/1 83/16/1
f 177/13/1 101/14/1 87/15/1 174/16/1
f 102/13/1 103/14/1 90/15/1 88/16/1
f 178/13/1 179/14/1 95/15/1 175/16/1
f 110/13/1 180/14/1 176/15/1 111/16/1
f 181/13/1 112/14/1 101/15/1 177/16/1
f 113/13/1 114/14/1 103/15/1 102/16/1
f 132/13/1 182/14/1 179/15/1 178/16/1
f 124/13/1 183/14/1 180/15/1 110/16/1
f 135/13/1 125/14/1 112/15/1 181/16/1
f 131/13/1 138/14/1 182/15/1 132/16/1
f 144/13/1 143/14/1 183/15/1 124/16/1

g mesh_0004
f 28/13/1 29/14/1 6/15/1 5/16/1
f 38/13/1 170/14/1 10/15/1 9/16/1
f 45/13/1 172/14/1 29/15/1 28/16/1
f 49/13/1 65/14/1 170/15/1 38/16/1
f 57/13/1 72/14/1 172/15/1 45/16/1
f 61/13/1 80/14/1 49/15/1 48/16/1
f 80/13/1 62/14/1 65/15/1 49/16/1
f 77/13/1 78/14/1 80/15/1 61/16/1
f 94/13/1 184/14/1 71/15/1 70/16/1
f 184/13/1 175/14/1 73/15/1 71/16/1
f 108/13/1 97/14/1 78/15/1 77/16/1
f 105/13/1 185/14/1 184/15/1 94/16/1
f 185/13/1 178/14/1 175/15/1 184/16/1
f 179/13/1 186/14/1 96/15/1 95/16/1
f 116/13/1 130/14/1 185/15/1 105/16/1
f 130/13/1 132/14/1 178/15/1 185/16/1
f 182/13/1 187/14/1 186/15/1 179/16/1
f 138/13/1 140/14/1 187/15/1 182/16/1

g mesh_0005
f 64/13/1 50/14/1 40/15/1 39/16/1
f 96/13/1 108/14/1 77/15/1 76/16/1
f 186/13/1 106/14/1 108/15/1 96/16/1
f 187/13/1 117/14/1 106/15/1 186/16/1
f 127/13/1 161/14/1 115/15/1 114/16/1
f 161/13/1 128/14/1 116/15/1 115/16/1
f 140/13/1 153/14/1 117/15/1 187/16/1

