# Wavefront OBJ file automatically generated by Tiled2Unity

# Vertices (Count = 187)
v 0 -32 0
v -32 -32 0
v -32 0 0
v 0 0 0
v -64 -32 0
v -96 -32 0
v -96 0 0
v -64 0 0
v -128 -32 0
v -128 0 0
v -160 -32 0
v -160 0 0
v -192 -32 0
v -192 0 0
v -224 -32 0
v -224 0 0
v -256 -32 0
v -256 0 0
v -288 -32 0
v -288 0 0
v -320 -32 0
v -320 0 0
v -352 -32 0
v -352 0 0
v -320 -64 0
v -352 -64 0
v -384 -64 0
v -416 -64 0
v -416 -32 0
v -384 -32 0
v -448 -64 0
v -448 -32 0
v -480 -64 0
v -480 -32 0
v -512 -64 0
v -512 -32 0
v 0 -96 0
v -32 -96 0
v -32 -64 0
v 0 -64 0
v -64 -96 0
v -96 -96 0
v -96 -64 0
v -64 -64 0
v -128 -96 0
v -128 -64 0
v -160 -96 0
v -160 -64 0
v -192 -96 0
v -192 -64 0
v -224 -96 0
v -224 -64 0
v -256 -96 0
v -288 -96 0
v -288 -64 0
v -256 -64 0
v -320 -96 0
v -352 -96 0
v -384 -96 0
v -416 -96 0
v -448 -96 0
v -480 -96 0
v 0 -128 0
v -32 -128 0
v -64 -128 0
v -96 -128 0
v -128 -128 0
v -160 -128 0
v -192 -128 0
v -224 -128 0
v -256 -128 0
v -288 -128 0
v -320 -128 0
v -352 -128 0
v -384 -128 0
v -416 -128 0
v -448 -128 0
v -480 -128 0
v -192 -160 0
v -224 -160 0
v -320 -160 0
v -352 -160 0
v -384 -160 0
v -416 -160 0
v -448 -160 0
v -480 -160 0
v 0 -192 0
v -32 -192 0
v -32 -160 0
v 0 -160 0
v -64 -192 0
v -64 -160 0
v -96 -192 0
v -96 -160 0
v -128 -192 0
v -128 -160 0
v -160 -192 0
v -160 -160 0
v -192 -192 0
v -224 -192 0
v -256 -192 0
v -256 -160 0
v -288 -192 0
v -288 -160 0
v -320 -192 0
v -352 -192 0
v -384 -192 0
v -416 -192 0
v -448 -192 0
v -480 -192 0
v 0 -224 0
v -32 -224 0
v -64 -224 0
v -96 -224 0
v -128 -224 0
v -160 -224 0
v -192 -224 0
v -224 -224 0
v -320 -224 0
v -352 -224 0
v -384 -224 0
v -416 -224 0
v -448 -224 0
v -480 -224 0
v -128 -256 0
v -160 -256 0
v -192 -256 0
v -224 -256 0
v -256 -256 0
v -288 -256 0
v -288 -224 0
v -256 -224 0
v -320 -256 0
v -352 -256 0
v -32 -288 0
v -64 -288 0
v -64 -256 0
v -32 -256 0
v -96 -288 0
v -96 -256 0
v -128 -288 0
v -160 -288 0
v -192 -288 0
v -224 -288 0
v -256 -288 0
v -288 -288 0
v -320 -288 0
v -352 -288 0
v -384 -288 0
v -384 -256 0
v -416 -288 0
v -416 -256 0
v -448 -288 0
v -448 -256 0
v -480 -288 0
v -480 -256 0
v -32 -320 0
v -64 -320 0
v -96 -320 0
v -192 -320 0
v -224 -320 0
v -384 0 0
v -416 0 0
v -448 0 0
v -480 0 0
v -512 0 0
v -512 -96 0
v -512 -128 0
v -512 -160 0
v -512 -192 0
v -512 -224 0
v 0 -256 0
v -512 -256 0
v 0 -288 0
v -512 -288 0
v 0 -320 0
v -128 -320 0
v -160 -320 0
v -256 -320 0
v -288 -320 0
v -320 -320 0
v -352 -320 0
v -384 -320 0
v -416 -320 0
v -448 -320 0
v -480 -320 0
v -512 -320 0

# Texture cooridinates (Count = 8)
vt 0.0001220703 0.0001220703
vt 0.9998779 0.0001220703
vt 0.9998779 0.9998779
vt 0.0001220703 0.9998779
vt 0.8571486 0.6521792
vt 0.9047561 0.6521792
vt 0.9047561 0.6956469
vt 0.8571486 0.6956469

# Normal
vn 0 0 -1

# Groups (Count = 1)

g mesh_0001
f 1/1/1 2/2/1 3/3/1 4/4/1
f 5/1/1 6/2/1 7/3/1 8/4/1
f 6/1/1 9/2/1 10/3/1 7/4/1
f 9/1/1 11/2/1 12/3/1 10/4/1
f 11/1/1 13/2/1 14/3/1 12/4/1
f 13/1/1 15/2/1 16/3/1 14/4/1
f 15/1/1 17/2/1 18/3/1 16/4/1
f 17/1/1 19/2/1 20/3/1 18/4/1
f 19/1/1 21/2/1 22/3/1 20/4/1
f 21/1/1 23/2/1 24/3/1 22/4/1
f 25/1/1 26/2/1 23/3/1 21/4/1
f 27/1/1 28/2/1 29/3/1 30/4/1
f 28/1/1 31/2/1 32/3/1 29/4/1
f 31/1/1 33/2/1 34/3/1 32/4/1
f 33/1/1 35/2/1 36/3/1 34/4/1
f 37/1/1 38/2/1 39/3/1 40/4/1
f 41/1/1 42/2/1 43/3/1 44/4/1
f 42/1/1 45/2/1 46/3/1 43/4/1
f 45/1/1 47/2/1 48/3/1 46/4/1
f 47/1/1 49/2/1 50/3/1 48/4/1
f 49/1/1 51/2/1 52/3/1 50/4/1
f 53/1/1 54/2/1 55/3/1 56/4/1
f 54/1/1 57/2/1 25/3/1 55/4/1
f 57/1/1 58/2/1 26/3/1 25/4/1
f 59/1/1 60/2/1 28/3/1 27/4/1
f 60/1/1 61/2/1 31/3/1 28/4/1
f 61/1/1 62/2/1 33/3/1 31/4/1
f 63/1/1 64/2/1 38/3/1 37/4/1
f 65/1/1 66/2/1 42/3/1 41/4/1
f 66/1/1 67/2/1 45/3/1 42/4/1
f 67/1/1 68/2/1 47/3/1 45/4/1
f 68/1/1 69/2/1 49/3/1 47/4/1
f 69/1/1 70/2/1 51/3/1 49/4/1
f 71/1/1 72/2/1 54/3/1 53/4/1
f 72/1/1 73/2/1 57/3/1 54/4/1
f 73/1/1 74/2/1 58/3/1 57/4/1
f 75/1/1 76/2/1 60/3/1 59/4/1
f 76/1/1 77/2/1 61/3/1 60/4/1
f 77/1/1 78/2/1 62/3/1 61/4/1
f 79/1/1 80/2/1 70/3/1 69/4/1
f 81/1/1 82/2/1 74/3/1 73/4/1
f 83/1/1 84/2/1 76/3/1 75/4/1
f 84/1/1 85/2/1 77/3/1 76/4/1
f 85/1/1 86/2/1 78/3/1 77/4/1
f 87/1/1 88/2/1 89/3/1 90/4/1
f 88/1/1 91/2/1 92/3/1 89/4/1
f 91/1/1 93/2/1 94/3/1 92/4/1
f 93/1/1 95/2/1 96/3/1 94/4/1
f 95/1/1 97/2/1 98/3/1 96/4/1
f 99/1/1 100/2/1 80/3/1 79/4/1
f 100/1/1 101/2/1 102/3/1 80/4/1
f 101/1/1 103/2/1 104/3/1 102/4/1
f 105/1/1 106/2/1 82/3/1 81/4/1
f 107/1/1 108/2/1 84/3/1 83/4/1
f 108/1/1 109/2/1 85/3/1 84/4/1
f 109/1/1 110/2/1 86/3/1 85/4/1
f 111/1/1 112/2/1 88/3/1 87/4/1
f 112/1/1 113/2/1 91/3/1 88/4/1
f 113/1/1 114/2/1 93/3/1 91/4/1
f 114/1/1 115/2/1 95/3/1 93/4/1
f 115/1/1 116/2/1 97/3/1 95/4/1
f 117/1/1 118/2/1 100/3/1 99/4/1
f 119/1/1 120/2/1 106/3/1 105/4/1
f 121/1/1 122/2/1 108/3/1 107/4/1
f 122/1/1 123/2/1 109/3/1 108/4/1
f 123/1/1 124/2/1 110/3/1 109/4/1
f 125/1/1 126/2/1 116/3/1 115/4/1
f 127/1/1 128/2/1 118/3/1 117/4/1
f 129/1/1 130/2/1 131/3/1 132/4/1
f 130/1/1 133/2/1 119/3/1 131/4/1
f 133/1/1 134/2/1 120/3/1 119/4/1
f 135/1/1 136/2/1 137/3/1 138/4/1
f 136/1/1 139/2/1 140/3/1 137/4/1
f 141/1/1 142/2/1 126/3/1 125/4/1
f 143/1/1 144/2/1 128/3/1 127/4/1
f 145/1/1 146/2/1 130/3/1 129/4/1
f 146/1/1 147/2/1 133/3/1 130/4/1
f 147/1/1 148/2/1 134/3/1 133/4/1
f 148/1/1 149/2/1 150/3/1 134/4/1
f 149/1/1 151/2/1 152/3/1 150/4/1
f 151/1/1 153/2/1 154/3/1 152/4/1
f 153/1/1 155/2/1 156/3/1 154/4/1
f 157/1/1 158/2/1 136/3/1 135/4/1
f 158/1/1 159/2/1 139/3/1 136/4/1
f 160/1/1 161/2/1 144/3/1 143/4/1

g mesh_0002
f 2/5/1 5/6/1 8/7/1 3/8/1
f 23/5/1 30/6/1 162/7/1 24/8/1
f 30/5/1 29/6/1 163/7/1 162/8/1
f 29/5/1 32/6/1 164/7/1 163/8/1
f 32/5/1 34/6/1 165/7/1 164/8/1
f 34/5/1 36/6/1 166/7/1 165/8/1
f 40/5/1 39/6/1 2/7/1 1/8/1
f 39/5/1 44/6/1 5/7/1 2/8/1
f 44/5/1 43/6/1 6/7/1 5/8/1
f 43/5/1 46/6/1 9/7/1 6/8/1
f 46/5/1 48/6/1 11/7/1 9/8/1
f 48/5/1 50/6/1 13/7/1 11/8/1
f 50/5/1 52/6/1 15/7/1 13/8/1
f 52/5/1 56/6/1 17/7/1 15/8/1
f 56/5/1 55/6/1 19/7/1 17/8/1
f 55/5/1 25/6/1 21/7/1 19/8/1
f 26/5/1 27/6/1 30/7/1 23/8/1
f 38/5/1 41/6/1 44/7/1 39/8/1
f 51/5/1 53/6/1 56/7/1 52/8/1
f 58/5/1 59/6/1 27/7/1 26/8/1
f 62/5/1 167/6/1 35/7/1 33/8/1
f 64/5/1 65/6/1 41/7/1 38/8/1
f 70/5/1 71/6/1 53/7/1 51/8/1
f 74/5/1 75/6/1 59/7/1 58/8/1
f 78/5/1 168/6/1 167/7/1 62/8/1
f 90/5/1 89/6/1 64/7/1 63/8/1
f 89/5/1 92/6/1 65/7/1 64/8/1
f 92/5/1 94/6/1 66/7/1 65/8/1
f 94/5/1 96/6/1 67/7/1 66/8/1
f 96/5/1 98/6/1 68/7/1 67/8/1
f 98/5/1 79/6/1 69/7/1 68/8/1
f 80/5/1 102/6/1 71/7/1 70/8/1
f 102/5/1 104/6/1 72/7/1 71/8/1
f 104/5/1 81/6/1 73/7/1 72/8/1
f 82/5/1 83/6/1 75/7/1 74/8/1
f 86/5/1 169/6/1 168/7/1 78/8/1
f 97/5/1 99/6/1 79/7/1 98/8/1
f 103/5/1 105/6/1 81/7/1 104/8/1
f 106/5/1 107/6/1 83/7/1 82/8/1
f 110/5/1 170/6/1 169/7/1 86/8/1
f 116/5/1 117/6/1 99/7/1 97/8/1
f 118/5/1 132/6/1 101/7/1 100/8/1
f 132/5/1 131/6/1 103/7/1 101/8/1
f 131/5/1 119/6/1 105/7/1 103/8/1
f 120/5/1 121/6/1 107/7/1 106/8/1
f 124/5/1 171/6/1 170/7/1 110/8/1
f 172/5/1 138/6/1 112/7/1 111/8/1
f 138/5/1 137/6/1 113/7/1 112/8/1
f 137/5/1 140/6/1 114/7/1 113/8/1
f 140/5/1 125/6/1 115/7/1 114/8/1
f 126/5/1 127/6/1 117/7/1 116/8/1
f 128/5/1 129/6/1 132/7/1 118/8/1
f 134/5/1 150/6/1 121/7/1 120/8/1
f 150/5/1 152/6/1 122/7/1 121/8/1
f 152/5/1 154/6/1 123/7/1 122/8/1
f 154/5/1 156/6/1 124/7/1 123/8/1
f 156/5/1 173/6/1 171/7/1 124/8/1
f 174/5/1 135/6/1 138/7/1 172/8/1
f 139/5/1 141/6/1 125/7/1 140/8/1
f 142/5/1 143/6/1 127/7/1 126/8/1
f 144/5/1 145/6/1 129/7/1 128/8/1
f 155/5/1 175/6/1 173/7/1 156/8/1
f 176/5/1 157/6/1 135/7/1 174/8/1
f 159/5/1 177/6/1 141/7/1 139/8/1
f 177/5/1 178/6/1 142/7/1 141/8/1
f 178/5/1 160/6/1 143/7/1 142/8/1
f 161/5/1 179/6/1 145/7/1 144/8/1
f 179/5/1 180/6/1 146/7/1 145/8/1
f 180/5/1 181/6/1 147/7/1 146/8/1
f 181/5/1 182/6/1 148/7/1 147/8/1
f 182/5/1 183/6/1 149/7/1 148/8/1
f 183/5/1 184/6/1 151/7/1 149/8/1
f 184/5/1 185/6/1 153/7/1 151/8/1
f 185/5/1 186/6/1 155/7/1 153/8/1
f 186/5/1 187/6/1 175/7/1 155/8/1

