# Wavefront OBJ file automatically generated by Tiled2Unity

# Vertices (Count = 198)
v 0 -32 0
v -32 -32 0
v -32 0 0
v 0 0 0
v -64 -32 0
v -96 -32 0
v -96 0 0
v -64 0 0
v -128 -32 0
v -128 0 0
v -160 -32 0
v -192 -32 0
v -192 0 0
v -160 0 0
v -224 -32 0
v -224 0 0
v -256 -32 0
v -256 0 0
v -288 -32 0
v -288 0 0
v -320 -32 0
v -352 -32 0
v -352 0 0
v -320 0 0
v -384 -32 0
v -384 0 0
v -416 -32 0
v -448 -32 0
v -448 0 0
v -416 0 0
v -480 -32 0
v -480 0 0
v -512 -32 0
v -512 0 0
v -544 -32 0
v -544 0 0
v -128 -64 0
v -160 -64 0
v -384 -64 0
v -416 -64 0
v -512 -64 0
v -544 -64 0
v 0 -96 0
v -32 -96 0
v -32 -64 0
v 0 -64 0
v -256 -96 0
v -288 -96 0
v -288 -64 0
v -256 -64 0
v -384 -96 0
v -416 -96 0
v -512 -96 0
v -544 -96 0
v 0 -128 0
v -32 -128 0
v -64 -128 0
v -96 -128 0
v -96 -96 0
v -64 -96 0
v -128 -128 0
v -128 -96 0
v -160 -128 0
v -160 -96 0
v -192 -128 0
v -224 -128 0
v -224 -96 0
v -192 -96 0
v -256 -128 0
v -288 -128 0
v -320 -128 0
v -320 -96 0
v -352 -128 0
v -352 -96 0
v -384 -128 0
v -416 -128 0
v -448 -128 0
v -448 -96 0
v -480 -128 0
v -480 -96 0
v -512 -128 0
v -544 -128 0
v -128 -160 0
v -160 -160 0
v -256 -160 0
v -288 -160 0
v -384 -160 0
v -416 -160 0
v -512 -160 0
v -544 -160 0
v 0 -192 0
v -32 -192 0
v -32 -160 0
v 0 -160 0
v -256 -192 0
v -288 -192 0
v -384 -192 0
v -416 -192 0
v -512 -192 0
v -544 -192 0
v 0 -224 0
v -32 -224 0
v -64 -224 0
v -96 -224 0
v -96 -192 0
v -64 -192 0
v -128 -224 0
v -128 -192 0
v -160 -224 0
v -160 -192 0
v -192 -224 0
v -224 -224 0
v -224 -192 0
v -192 -192 0
v -256 -224 0
v -288 -224 0
v -320 -224 0
v -320 -192 0
v -352 -224 0
v -352 -192 0
v -384 -224 0
v -416 -224 0
v -448 -224 0
v -480 -224 0
v -480 -192 0
v -448 -192 0
v -512 -224 0
v -128 -256 0
v -160 -256 0
v -256 -256 0
v -288 -256 0
v -512 -256 0
v -544 -256 0
v -544 -224 0
v 0 -288 0
v -32 -288 0
v -32 -256 0
v 0 -256 0
v -128 -288 0
v -160 -288 0
v -256 -288 0
v -288 -288 0
v -384 -288 0
v -416 -288 0
v -416 -256 0
v -384 -256 0
v -512 -288 0
v -544 -288 0
v 0 -320 0
v -32 -320 0
v -64 -320 0
v -64 -288 0
v -96 -320 0
v -96 -288 0
v -128 -320 0
v -160 -320 0
v -192 -320 0
v -192 -288 0
v -224 -320 0
v -224 -288 0
v -256 -320 0
v -288 -320 0
v -320 -320 0
v -352 -320 0
v -352 -288 0
v -320 -288 0
v -384 -320 0
v -416 -320 0
v -448 -320 0
v -448 -288 0
v -480 -320 0
v -480 -288 0
v -512 -320 0
v -64 -64 0
v -96 -64 0
v -192 -64 0
v -224 -64 0
v -320 -64 0
v -352 -64 0
v -448 -64 0
v -480 -64 0
v -64 -160 0
v -96 -160 0
v -192 -160 0
v -224 -160 0
v -320 -160 0
v -352 -160 0
v -448 -160 0
v -480 -160 0
v -64 -256 0
v -96 -256 0
v -192 -256 0
v -224 -256 0
v -320 -256 0
v -352 -256 0
v -448 -256 0
v -480 -256 0
v -544 -320 0

# Texture cooridinates (Count = 12)
vt 0.2500305 0.668414
vt 0.4999695 0.668414
vt 0.4999695 0.8341767
vt 0.2500305 0.8341767
vt 0.0001220703 0.0001220703
vt 0.9998779 0.0001220703
vt 0.9998779 0.9998779
vt 0.0001220703 0.9998779
vt 0.2480923 0.7519683
vt 0.4960938 0.7519683
vt 0.4960938 0.9999697
vt 0.2480923 0.9999697

# Normal
vn 0 0 -1

# Groups (Count = 1)

g mesh_0001
f 1/1/1 2/2/1 3/3/1 4/4/1
f 5/1/1 6/2/1 7/3/1 8/4/1
f 6/1/1 9/2/1 10/3/1 7/4/1
f 11/1/1 12/2/1 13/3/1 14/4/1
f 12/1/1 15/2/1 16/3/1 13/4/1
f 15/1/1 17/2/1 18/3/1 16/4/1
f 17/1/1 19/2/1 20/3/1 18/4/1
f 21/1/1 22/2/1 23/3/1 24/4/1
f 22/1/1 25/2/1 26/3/1 23/4/1
f 27/1/1 28/2/1 29/3/1 30/4/1
f 28/1/1 31/2/1 32/3/1 29/4/1
f 31/1/1 33/2/1 34/3/1 32/4/1
f 33/1/1 35/2/1 36/3/1 34/4/1
f 37/1/1 38/2/1 11/3/1 9/4/1
f 39/1/1 40/2/1 27/3/1 25/4/1
f 41/1/1 42/2/1 35/3/1 33/4/1
f 43/1/1 44/2/1 45/3/1 46/4/1
f 47/1/1 48/2/1 49/3/1 50/4/1
f 51/1/1 52/2/1 40/3/1 39/4/1
f 53/1/1 54/2/1 42/3/1 41/4/1
f 55/1/1 56/2/1 44/3/1 43/4/1
f 57/1/1 58/2/1 59/3/1 60/4/1
f 58/1/1 61/2/1 62/3/1 59/4/1
f 61/1/1 63/2/1 64/3/1 62/4/1
f 65/1/1 66/2/1 67/3/1 68/4/1
f 66/1/1 69/2/1 47/3/1 67/4/1
f 70/1/1 71/2/1 72/3/1 48/4/1
f 71/1/1 73/2/1 74/3/1 72/4/1
f 73/1/1 75/2/1 51/3/1 74/4/1
f 76/1/1 77/2/1 78/3/1 52/4/1
f 77/1/1 79/2/1 80/3/1 78/4/1
f 79/1/1 81/2/1 53/3/1 80/4/1
f 81/1/1 82/2/1 54/3/1 53/4/1
f 83/1/1 84/2/1 63/3/1 61/4/1
f 85/1/1 86/2/1 70/3/1 69/4/1
f 87/1/1 88/2/1 76/3/1 75/4/1
f 89/1/1 90/2/1 82/3/1 81/4/1
f 91/1/1 92/2/1 93/3/1 94/4/1
f 95/1/1 96/2/1 86/3/1 85/4/1
f 97/1/1 98/2/1 88/3/1 87/4/1
f 99/1/1 100/2/1 90/3/1 89/4/1
f 101/1/1 102/2/1 92/3/1 91/4/1
f 103/1/1 104/2/1 105/3/1 106/4/1
f 104/1/1 107/2/1 108/3/1 105/4/1
f 107/1/1 109/2/1 110/3/1 108/4/1
f 111/1/1 112/2/1 113/3/1 114/4/1
f 112/1/1 115/2/1 95/3/1 113/4/1
f 116/1/1 117/2/1 118/3/1 96/4/1
f 117/1/1 119/2/1 120/3/1 118/4/1
f 119/1/1 121/2/1 97/3/1 120/4/1
f 121/1/1 122/2/1 98/3/1 97/4/1
f 123/1/1 124/2/1 125/3/1 126/4/1
f 124/1/1 127/2/1 99/3/1 125/4/1
f 128/1/1 129/2/1 109/3/1 107/4/1
f 130/1/1 131/2/1 116/3/1 115/4/1
f 132/1/1 133/2/1 134/3/1 127/4/1
f 135/1/1 136/2/1 137/3/1 138/4/1
f 139/1/1 140/2/1 129/3/1 128/4/1
f 141/1/1 142/2/1 131/3/1 130/4/1
f 143/1/1 144/2/1 145/3/1 146/4/1
f 147/1/1 148/2/1 133/3/1 132/4/1
f 149/1/1 150/2/1 136/3/1 135/4/1
f 150/1/1 151/2/1 152/3/1 136/4/1
f 151/1/1 153/2/1 154/3/1 152/4/1
f 153/1/1 155/2/1 139/3/1 154/4/1
f 156/1/1 157/2/1 158/3/1 140/4/1
f 157/1/1 159/2/1 160/3/1 158/4/1
f 161/1/1 162/2/1 142/3/1 141/4/1
f 163/1/1 164/2/1 165/3/1 166/4/1
f 164/1/1 167/2/1 143/3/1 165/4/1
f 168/1/1 169/2/1 170/3/1 144/4/1
f 169/1/1 171/2/1 172/3/1 170/4/1
f 171/1/1 173/2/1 147/3/1 172/4/1

g mesh_0002
f 2/5/1 5/6/1 8/7/1 3/8/1
f 9/5/1 11/6/1 14/7/1 10/8/1
f 19/5/1 21/6/1 24/7/1 20/8/1
f 56/5/1 57/6/1 60/7/1 44/8/1
f 63/5/1 65/6/1 68/7/1 64/8/1
f 69/5/1 70/6/1 48/7/1 47/8/1
f 109/5/1 111/6/1 114/7/1 110/8/1
f 162/5/1 163/6/1 166/7/1 142/8/1
f 167/5/1 168/6/1 144/7/1 143/8/1

g mesh_0003
f 25/5/1 27/6/1 30/7/1 26/8/1
f 46/5/1 45/6/1 2/7/1 1/8/1
f 50/5/1 49/6/1 19/7/1 17/8/1
f 75/5/1 76/6/1 52/7/1 51/8/1
f 94/5/1 93/6/1 56/7/1 55/8/1
f 115/5/1 116/6/1 96/7/1 95/8/1
f 138/5/1 137/6/1 102/7/1 101/8/1
f 146/5/1 145/6/1 122/7/1 121/8/1

g mesh_0004
f 45/9/1 174/10/1 5/11/1 2/12/1
f 174/9/1 175/10/1 6/11/1 5/12/1
f 175/9/1 37/10/1 9/11/1 6/12/1
f 38/9/1 176/10/1 12/11/1 11/12/1
f 176/9/1 177/10/1 15/11/1 12/12/1
f 177/9/1 50/10/1 17/11/1 15/12/1
f 49/9/1 178/10/1 21/11/1 19/12/1
f 178/9/1 179/10/1 22/11/1 21/12/1
f 179/9/1 39/10/1 25/11/1 22/12/1
f 40/9/1 180/10/1 28/11/1 27/12/1
f 180/9/1 181/10/1 31/11/1 28/12/1
f 181/9/1 41/10/1 33/11/1 31/12/1
f 44/9/1 60/10/1 174/11/1 45/12/1
f 60/9/1 59/10/1 175/11/1 174/12/1
f 59/9/1 62/10/1 37/11/1 175/12/1
f 64/9/1 68/10/1 176/11/1 38/12/1
f 68/9/1 67/10/1 177/11/1 176/12/1
f 67/9/1 47/10/1 50/11/1 177/12/1
f 48/9/1 72/10/1 178/11/1 49/12/1
f 72/9/1 74/10/1 179/11/1 178/12/1
f 74/9/1 51/10/1 39/11/1 179/12/1
f 52/9/1 78/10/1 180/11/1 40/12/1
f 78/9/1 80/10/1 181/11/1 180/12/1
f 80/9/1 53/10/1 41/11/1 181/12/1
f 93/9/1 182/10/1 57/11/1 56/12/1
f 182/9/1 183/10/1 58/11/1 57/12/1
f 183/9/1 83/10/1 61/11/1 58/12/1
f 84/9/1 184/10/1 65/11/1 63/12/1
f 184/9/1 185/10/1 66/11/1 65/12/1
f 185/9/1 85/10/1 69/11/1 66/12/1
f 86/9/1 186/10/1 71/11/1 70/12/1
f 186/9/1 187/10/1 73/11/1 71/12/1
f 187/9/1 87/10/1 75/11/1 73/12/1
f 88/9/1 188/10/1 77/11/1 76/12/1
f 188/9/1 189/10/1 79/11/1 77/12/1
f 189/9/1 89/10/1 81/11/1 79/12/1
f 92/9/1 106/10/1 182/11/1 93/12/1
f 106/9/1 105/10/1 183/11/1 182/12/1
f 105/9/1 108/10/1 83/11/1 183/12/1
f 110/9/1 114/10/1 184/11/1 84/12/1
f 114/9/1 113/10/1 185/11/1 184/12/1
f 113/9/1 95/10/1 85/11/1 185/12/1
f 96/9/1 118/10/1 186/11/1 86/12/1
f 118/9/1 120/10/1 187/11/1 186/12/1
f 120/9/1 97/10/1 87/11/1 187/12/1
f 98/9/1 126/10/1 188/11/1 88/12/1
f 126/9/1 125/10/1 189/11/1 188/12/1
f 125/9/1 99/10/1 89/11/1 189/12/1
f 137/9/1 190/10/1 103/11/1 102/12/1
f 190/9/1 191/10/1 104/11/1 103/12/1
f 191/9/1 128/10/1 107/11/1 104/12/1
f 129/9/1 192/10/1 111/11/1 109/12/1
f 192/9/1 193/10/1 112/11/1 111/12/1
f 193/9/1 130/10/1 115/11/1 112/12/1
f 131/9/1 194/10/1 117/11/1 116/12/1
f 194/9/1 195/10/1 119/11/1 117/12/1
f 195/9/1 146/10/1 121/11/1 119/12/1
f 145/9/1 196/10/1 123/11/1 122/12/1
f 196/9/1 197/10/1 124/11/1 123/12/1
f 197/9/1 132/10/1 127/11/1 124/12/1
f 136/9/1 152/10/1 190/11/1 137/12/1
f 152/9/1 154/10/1 191/11/1 190/12/1
f 154/9/1 139/10/1 128/11/1 191/12/1
f 140/9/1 158/10/1 192/11/1 129/12/1
f 158/9/1 160/10/1 193/11/1 192/12/1
f 160/9/1 141/10/1 130/11/1 193/12/1
f 142/9/1 166/10/1 194/11/1 131/12/1
f 166/9/1 165/10/1 195/11/1 194/12/1
f 165/9/1 143/10/1 146/11/1 195/12/1
f 144/9/1 170/10/1 196/11/1 145/12/1
f 170/9/1 172/10/1 197/11/1 196/12/1
f 172/9/1 147/10/1 132/11/1 197/12/1

g mesh_0005
f 62/5/1 64/6/1 38/7/1 37/8/1
f 108/5/1 110/6/1 84/7/1 83/8/1
f 155/5/1 156/6/1 140/7/1 139/8/1
f 173/5/1 198/6/1 148/7/1 147/8/1

g mesh_0006
f 102/5/1 103/6/1 106/7/1 92/8/1
f 122/5/1 123/6/1 126/7/1 98/8/1
f 127/5/1 134/6/1 100/7/1 99/8/1
f 159/5/1 161/6/1 141/7/1 160/8/1

