# Wavefront OBJ file automatically generated by Tiled2Unity

# Vertices (Count = 204)
v 0 -32 0
v -32 -32 0
v -32 0 0
v 0 0 0
v -64 -32 0
v -64 0 0
v -96 -32 0
v -96 0 0
v -128 -32 0
v -128 0 0
v -160 -32 0
v -160 0 0
v -192 -32 0
v -192 0 0
v -224 -32 0
v -224 0 0
v -256 -32 0
v -256 0 0
v -288 -32 0
v -288 0 0
v -320 -32 0
v -320 0 0
v -352 -32 0
v -352 0 0
v -384 -32 0
v -384 0 0
v -416 -32 0
v -416 0 0
v -448 -32 0
v -448 0 0
v -480 -32 0
v -480 0 0
v -512 -32 0
v -512 0 0
v 0 -64 0
v -32 -64 0
v -64 -64 0
v -96 -64 0
v -128 -64 0
v -160 -64 0
v -192 -64 0
v -224 -64 0
v -256 -64 0
v -288 -64 0
v -320 -64 0
v -352 -64 0
v -384 -64 0
v -416 -64 0
v -448 -64 0
v -480 -64 0
v -512 -64 0
v 0 -96 0
v -32 -96 0
v -64 -96 0
v -96 -96 0
v -128 -96 0
v -160 -96 0
v -192 -96 0
v -224 -96 0
v -256 -96 0
v -288 -96 0
v -320 -96 0
v -352 -96 0
v -384 -96 0
v -416 -96 0
v -448 -96 0
v -480 -96 0
v -512 -96 0
v 0 -128 0
v -32 -128 0
v -64 -128 0
v -96 -128 0
v -128 -128 0
v -160 -128 0
v -192 -128 0
v -224 -128 0
v -256 -128 0
v -288 -128 0
v -320 -128 0
v -352 -128 0
v -384 -128 0
v -416 -128 0
v -448 -128 0
v -480 -128 0
v -512 -128 0
v 0 -160 0
v -32 -160 0
v -64 -160 0
v -96 -160 0
v -128 -160 0
v -160 -160 0
v -192 -160 0
v -224 -160 0
v -256 -160 0
v -288 -160 0
v -320 -160 0
v -352 -160 0
v -384 -160 0
v -416 -160 0
v -448 -160 0
v -480 -160 0
v -512 -160 0
v 0 -192 0
v -32 -192 0
v -64 -192 0
v -96 -192 0
v -128 -192 0
v -160 -192 0
v -192 -192 0
v -224 -192 0
v -256 -192 0
v -288 -192 0
v -320 -192 0
v -352 -192 0
v -384 -192 0
v -416 -192 0
v -448 -192 0
v -480 -192 0
v -512 -192 0
v 0 -224 0
v -32 -224 0
v -64 -224 0
v -96 -224 0
v -128 -224 0
v -160 -224 0
v -192 -224 0
v -224 -224 0
v -256 -224 0
v -288 -224 0
v -320 -224 0
v -352 -224 0
v -384 -224 0
v -416 -224 0
v -448 -224 0
v -480 -224 0
v -512 -224 0
v 0 -256 0
v -32 -256 0
v -64 -256 0
v -96 -256 0
v -128 -256 0
v -160 -256 0
v -192 -256 0
v -224 -256 0
v -256 -256 0
v -288 -256 0
v -320 -256 0
v -352 -256 0
v -384 -256 0
v -416 -256 0
v -448 -256 0
v -480 -256 0
v -512 -256 0
v 0 -288 0
v -32 -288 0
v -64 -288 0
v -96 -288 0
v -128 -288 0
v -160 -288 0
v -192 -288 0
v -224 -288 0
v -256 -288 0
v -288 -288 0
v -320 -288 0
v -352 -288 0
v -384 -288 0
v -416 -288 0
v -448 -288 0
v -480 -288 0
v -512 -288 0
v 0 -320 0
v -32 -320 0
v -64 -320 0
v -96 -320 0
v -128 -320 0
v -160 -320 0
v -192 -320 0
v -224 -320 0
v -256 -320 0
v -288 -320 0
v -320 -320 0
v -352 -320 0
v -384 -320 0
v -416 -320 0
v -448 -320 0
v -480 -320 0
v -512 -320 0
v 0 -352 0
v -32 -352 0
v -64 -352 0
v -96 -352 0
v -128 -352 0
v -160 -352 0
v -192 -352 0
v -224 -352 0
v -256 -352 0
v -288 -352 0
v -320 -352 0
v -352 -352 0
v -384 -352 0
v -416 -352 0
v -448 -352 0
v -480 -352 0
v -512 -352 0

# Texture cooridinates (Count = 16)
vt 0.909102 2.032518E-05
vt 0.9999889 2.032518E-05
vt 0.9999889 0.1666463
vt 0.909102 0.1666463
vt 0.4545566 0.3333537
vt 0.5454435 0.3333537
vt 0.5454435 0.4999797
vt 0.4545566 0.4999797
vt 0.09092019 0.666687
vt 0.1818071 0.666687
vt 0.1818071 0.833313
vt 0.09092019 0.833313
vt 0.1818293 0.666687
vt 0.2727162 0.666687
vt 0.2727162 0.833313
vt 0.1818293 0.833313

# Normal
vn 0 0 -1

# Groups (Count = 2)

g mesh_0001
f 1/1/1 2/2/1 3/3/1 4/4/1
f 2/1/1 5/2/1 6/3/1 3/4/1
f 5/1/1 7/2/1 8/3/1 6/4/1
f 7/1/1 9/2/1 10/3/1 8/4/1
f 9/1/1 11/2/1 12/3/1 10/4/1
f 11/1/1 13/2/1 14/3/1 12/4/1
f 13/1/1 15/2/1 16/3/1 14/4/1
f 15/5/1 17/6/1 18/7/1 16/8/1
f 17/1/1 19/2/1 20/3/1 18/4/1
f 19/1/1 21/2/1 22/3/1 20/4/1
f 21/1/1 23/2/1 24/3/1 22/4/1
f 23/1/1 25/2/1 26/3/1 24/4/1
f 25/1/1 27/2/1 28/3/1 26/4/1
f 27/1/1 29/2/1 30/3/1 28/4/1
f 29/1/1 31/2/1 32/3/1 30/4/1
f 31/1/1 33/2/1 34/3/1 32/4/1
f 35/1/1 36/2/1 2/3/1 1/4/1
f 36/1/1 37/2/1 5/3/1 2/4/1
f 37/1/1 38/2/1 7/3/1 5/4/1
f 38/1/1 39/2/1 9/3/1 7/4/1
f 39/1/1 40/2/1 11/3/1 9/4/1
f 40/1/1 41/2/1 13/3/1 11/4/1
f 41/1/1 42/2/1 15/3/1 13/4/1
f 42/9/1 43/10/1 17/11/1 15/12/1
f 43/9/1 44/10/1 19/11/1 17/12/1
f 44/9/1 45/10/1 21/11/1 19/12/1
f 45/9/1 46/10/1 23/11/1 21/12/1
f 46/9/1 47/10/1 25/11/1 23/12/1
f 47/9/1 48/10/1 27/11/1 25/12/1
f 48/9/1 49/10/1 29/11/1 27/12/1
f 49/9/1 50/10/1 31/11/1 29/12/1
f 50/1/1 51/2/1 33/3/1 31/4/1
f 52/1/1 53/2/1 36/3/1 35/4/1
f 53/1/1 54/2/1 37/3/1 36/4/1
f 54/9/1 55/10/1 38/11/1 37/12/1
f 55/9/1 56/10/1 39/11/1 38/12/1
f 56/9/1 57/10/1 40/11/1 39/12/1
f 57/1/1 58/2/1 41/3/1 40/4/1
f 58/1/1 59/2/1 42/3/1 41/4/1
f 59/1/1 60/2/1 43/3/1 42/4/1
f 60/1/1 61/2/1 44/3/1 43/4/1
f 61/1/1 62/2/1 45/3/1 44/4/1
f 62/1/1 63/2/1 46/3/1 45/4/1
f 63/1/1 64/2/1 47/3/1 46/4/1
f 64/1/1 65/2/1 48/3/1 47/4/1
f 65/1/1 66/2/1 49/3/1 48/4/1
f 66/9/1 67/10/1 50/11/1 49/12/1
f 67/1/1 68/2/1 51/3/1 50/4/1
f 69/1/1 70/2/1 53/3/1 52/4/1
f 70/1/1 71/2/1 54/3/1 53/4/1
f 71/9/1 72/10/1 55/11/1 54/12/1
f 72/1/1 73/2/1 56/3/1 55/4/1
f 73/9/1 74/10/1 57/11/1 56/12/1
f 74/1/1 75/2/1 58/3/1 57/4/1
f 75/9/1 76/10/1 59/11/1 58/12/1
f 76/9/1 77/10/1 60/11/1 59/12/1
f 77/9/1 78/10/1 61/11/1 60/12/1
f 78/9/1 79/10/1 62/11/1 61/12/1
f 79/9/1 80/10/1 63/11/1 62/12/1
f 80/1/1 81/2/1 64/3/1 63/4/1
f 81/1/1 82/2/1 65/3/1 64/4/1
f 82/1/1 83/2/1 66/3/1 65/4/1
f 83/9/1 84/10/1 67/11/1 66/12/1
f 84/1/1 85/2/1 68/3/1 67/4/1
f 86/1/1 87/2/1 70/3/1 69/4/1
f 87/1/1 88/2/1 71/3/1 70/4/1
f 88/9/1 89/10/1 72/11/1 71/12/1
f 89/1/1 90/2/1 73/3/1 72/4/1
f 90/9/1 91/10/1 74/11/1 73/12/1
f 91/1/1 92/2/1 75/3/1 74/4/1
f 92/9/1 93/10/1 76/11/1 75/12/1
f 93/1/1 94/2/1 77/3/1 76/4/1
f 94/1/1 95/2/1 78/3/1 77/4/1
f 95/1/1 96/2/1 79/3/1 78/4/1
f 96/9/1 97/10/1 80/11/1 79/12/1
f 97/9/1 98/10/1 81/11/1 80/12/1
f 98/9/1 99/10/1 82/11/1 81/12/1
f 99/1/1 100/2/1 83/3/1 82/4/1
f 100/9/1 101/10/1 84/11/1 83/12/1
f 101/1/1 102/2/1 85/3/1 84/4/1
f 103/9/1 104/10/1 87/11/1 86/12/1
f 104/9/1 105/10/1 88/11/1 87/12/1
f 105/9/1 106/10/1 89/11/1 88/12/1
f 106/1/1 107/2/1 90/3/1 89/4/1
f 107/9/1 108/10/1 91/11/1 90/12/1
f 108/1/1 109/2/1 92/3/1 91/4/1
f 109/9/1 110/10/1 93/11/1 92/12/1
f 110/9/1 111/10/1 94/11/1 93/12/1
f 111/9/1 112/10/1 95/11/1 94/12/1
f 112/1/1 113/2/1 96/3/1 95/4/1
f 113/1/1 114/2/1 97/3/1 96/4/1
f 114/1/1 115/2/1 98/3/1 97/4/1
f 115/9/1 116/10/1 99/11/1 98/12/1
f 116/1/1 117/2/1 100/3/1 99/4/1
f 117/9/1 118/10/1 101/11/1 100/12/1
f 118/1/1 119/2/1 102/3/1 101/4/1
f 120/1/1 121/2/1 104/3/1 103/4/1
f 121/1/1 122/2/1 105/3/1 104/4/1
f 122/1/1 123/2/1 106/3/1 105/4/1
f 123/1/1 124/2/1 107/3/1 106/4/1
f 124/9/1 125/10/1 108/11/1 107/12/1
f 125/1/1 126/2/1 109/3/1 108/4/1
f 126/1/1 127/2/1 110/3/1 109/4/1
f 127/1/1 128/2/1 111/3/1 110/4/1
f 128/9/1 129/10/1 112/11/1 111/12/1
f 129/9/1 130/10/1 113/11/1 112/12/1
f 130/9/1 131/10/1 114/11/1 113/12/1
f 131/1/1 132/2/1 115/3/1 114/4/1
f 132/9/1 133/10/1 116/11/1 115/12/1
f 133/1/1 134/2/1 117/3/1 116/4/1
f 134/9/1 135/10/1 118/11/1 117/12/1
f 135/1/1 136/2/1 119/3/1 118/4/1
f 137/1/1 138/2/1 121/3/1 120/4/1
f 138/1/1 139/2/1 122/3/1 121/4/1
f 139/9/1 140/10/1 123/11/1 122/12/1
f 140/9/1 141/10/1 124/11/1 123/12/1
f 141/9/1 142/10/1 125/11/1 124/12/1
f 142/1/1 143/2/1 126/3/1 125/4/1
f 143/1/1 144/2/1 127/3/1 126/4/1
f 144/1/1 145/2/1 128/3/1 127/4/1
f 145/1/1 146/2/1 129/3/1 128/4/1
f 146/1/1 147/2/1 130/3/1 129/4/1
f 147/9/1 148/10/1 131/11/1 130/12/1
f 148/1/1 149/2/1 132/3/1 131/4/1
f 149/9/1 150/10/1 133/11/1 132/12/1
f 150/1/1 151/2/1 134/3/1 133/4/1
f 151/9/1 152/10/1 135/11/1 134/12/1
f 152/1/1 153/2/1 136/3/1 135/4/1
f 154/1/1 155/2/1 138/3/1 137/4/1
f 155/1/1 156/2/1 139/3/1 138/4/1
f 156/9/1 157/10/1 140/11/1 139/12/1
f 157/1/1 158/2/1 141/3/1 140/4/1
f 158/1/1 159/2/1 142/3/1 141/4/1
f 159/1/1 160/2/1 143/3/1 142/4/1
f 160/9/1 161/10/1 144/11/1 143/12/1
f 161/9/1 162/10/1 145/11/1 144/12/1
f 162/9/1 163/10/1 146/11/1 145/12/1
f 163/1/1 164/2/1 147/3/1 146/4/1
f 164/9/1 165/10/1 148/11/1 147/12/1
f 165/1/1 166/2/1 149/3/1 148/4/1
f 166/9/1 167/10/1 150/11/1 149/12/1
f 167/1/1 168/2/1 151/3/1 150/4/1
f 168/9/1 169/10/1 152/11/1 151/12/1
f 169/1/1 170/2/1 153/3/1 152/4/1
f 171/1/1 172/2/1 155/3/1 154/4/1
f 172/1/1 173/2/1 156/3/1 155/4/1
f 173/9/1 174/10/1 157/11/1 156/12/1
f 174/9/1 175/10/1 158/11/1 157/12/1
f 175/9/1 176/10/1 159/11/1 158/12/1
f 176/9/1 177/10/1 160/11/1 159/12/1
f 177/9/1 178/10/1 161/11/1 160/12/1
f 178/1/1 179/2/1 162/3/1 161/4/1
f 179/9/1 180/10/1 163/11/1 162/12/1
f 180/9/1 181/10/1 164/11/1 163/12/1
f 181/9/1 182/10/1 165/11/1 164/12/1
f 182/1/1 183/2/1 166/3/1 165/4/1
f 183/9/1 184/10/1 167/11/1 166/12/1
f 184/9/1 185/10/1 168/11/1 167/12/1
f 185/9/1 186/10/1 169/11/1 168/12/1
f 186/1/1 187/2/1 170/3/1 169/4/1
f 188/1/1 189/2/1 172/3/1 171/4/1
f 189/1/1 190/2/1 173/3/1 172/4/1
f 190/1/1 191/2/1 174/3/1 173/4/1
f 191/1/1 192/2/1 175/3/1 174/4/1
f 192/1/1 193/2/1 176/3/1 175/4/1
f 193/1/1 194/2/1 177/3/1 176/4/1
f 194/1/1 195/2/1 178/3/1 177/4/1
f 195/1/1 196/2/1 179/3/1 178/4/1
f 196/1/1 197/2/1 180/3/1 179/4/1
f 197/1/1 198/2/1 181/3/1 180/4/1
f 198/1/1 199/2/1 182/3/1 181/4/1
f 199/1/1 200/2/1 183/3/1 182/4/1
f 200/1/1 201/2/1 184/3/1 183/4/1
f 201/1/1 202/2/1 185/3/1 184/4/1
f 202/1/1 203/2/1 186/3/1 185/4/1
f 203/1/1 204/2/1 187/3/1 186/4/1

g mesh_0002
f 36/9/1 37/10/1 5/11/1 2/12/1
f 37/9/1 38/10/1 7/11/1 5/12/1
f 54/9/1 55/10/1 38/11/1 37/12/1
f 64/9/1 65/10/1 48/11/1 47/12/1
f 81/9/1 82/10/1 65/11/1 64/12/1
f 103/13/1 104/14/1 87/15/1 86/16/1
f 109/9/1 110/10/1 93/11/1 92/12/1
f 116/9/1 117/10/1 100/11/1 99/12/1
f 126/9/1 127/10/1 110/11/1 109/12/1
f 143/9/1 144/10/1 127/11/1 126/12/1
f 148/9/1 149/10/1 132/11/1 131/12/1
f 160/9/1 161/10/1 144/11/1 143/12/1

