# Wavefront OBJ file automatically generated by Tiled2Unity

# Vertices (Count = 204)
v 0 -32 0
v -32 -32 0
v -32 0 0
v 0 0 0
v -64 -32 0
v -64 0 0
v -96 -32 0
v -96 0 0
v -128 -32 0
v -128 0 0
v -160 -32 0
v -160 0 0
v -192 -32 0
v -192 0 0
v -224 -32 0
v -224 0 0
v -256 -32 0
v -256 0 0
v -288 -32 0
v -288 0 0
v -320 -32 0
v -320 0 0
v -352 -32 0
v -352 0 0
v -384 -32 0
v -384 0 0
v -416 -32 0
v -416 0 0
v -448 -32 0
v -448 0 0
v -480 -32 0
v -480 0 0
v -512 -32 0
v -512 0 0
v 0 -64 0
v -32 -64 0
v -64 -64 0
v -96 -64 0
v -128 -64 0
v -160 -64 0
v -192 -64 0
v -224 -64 0
v -256 -64 0
v -288 -64 0
v -320 -64 0
v -352 -64 0
v -384 -64 0
v -416 -64 0
v -448 -64 0
v -480 -64 0
v -512 -64 0
v 0 -96 0
v -32 -96 0
v -64 -96 0
v -96 -96 0
v -128 -96 0
v -160 -96 0
v -192 -96 0
v -224 -96 0
v -256 -96 0
v -288 -96 0
v -320 -96 0
v -352 -96 0
v -384 -96 0
v -416 -96 0
v -448 -96 0
v -480 -96 0
v -512 -96 0
v 0 -128 0
v -32 -128 0
v -64 -128 0
v -96 -128 0
v -128 -128 0
v -160 -128 0
v -192 -128 0
v -224 -128 0
v -256 -128 0
v -288 -128 0
v -320 -128 0
v -352 -128 0
v -384 -128 0
v -416 -128 0
v -448 -128 0
v -480 -128 0
v -512 -128 0
v 0 -160 0
v -32 -160 0
v -64 -160 0
v -96 -160 0
v -128 -160 0
v -160 -160 0
v -192 -160 0
v -224 -160 0
v -256 -160 0
v -288 -160 0
v -320 -160 0
v -352 -160 0
v -384 -160 0
v -416 -160 0
v -448 -160 0
v -480 -160 0
v -512 -160 0
v 0 -192 0
v -32 -192 0
v -64 -192 0
v -96 -192 0
v -128 -192 0
v -160 -192 0
v -192 -192 0
v -224 -192 0
v -256 -192 0
v -288 -192 0
v -320 -192 0
v -352 -192 0
v -384 -192 0
v -416 -192 0
v -448 -192 0
v -480 -192 0
v -512 -192 0
v 0 -224 0
v -32 -224 0
v -64 -224 0
v -96 -224 0
v -128 -224 0
v -160 -224 0
v -192 -224 0
v -224 -224 0
v -256 -224 0
v -288 -224 0
v -320 -224 0
v -352 -224 0
v -384 -224 0
v -416 -224 0
v -448 -224 0
v -480 -224 0
v -512 -224 0
v 0 -256 0
v -32 -256 0
v -64 -256 0
v -96 -256 0
v -128 -256 0
v -160 -256 0
v -192 -256 0
v -224 -256 0
v -256 -256 0
v -288 -256 0
v -320 -256 0
v -352 -256 0
v -384 -256 0
v -416 -256 0
v -448 -256 0
v -480 -256 0
v -512 -256 0
v 0 -288 0
v -32 -288 0
v -64 -288 0
v -96 -288 0
v -128 -288 0
v -160 -288 0
v -192 -288 0
v -224 -288 0
v -256 -288 0
v -288 -288 0
v -320 -288 0
v -352 -288 0
v -384 -288 0
v -416 -288 0
v -448 -288 0
v -480 -288 0
v -512 -288 0
v 0 -320 0
v -32 -320 0
v -64 -320 0
v -96 -320 0
v -128 -320 0
v -160 -320 0
v -192 -320 0
v -224 -320 0
v -256 -320 0
v -288 -320 0
v -320 -320 0
v -352 -320 0
v -384 -320 0
v -416 -320 0
v -448 -320 0
v -480 -320 0
v -512 -320 0
v 0 -352 0
v -32 -352 0
v -64 -352 0
v -96 -352 0
v -128 -352 0
v -160 -352 0
v -192 -352 0
v -224 -352 0
v -256 -352 0
v -288 -352 0
v -320 -352 0
v -352 -352 0
v -384 -352 0
v -416 -352 0
v -448 -352 0
v -480 -352 0
v -512 -352 0

# Texture cooridinates (Count = 64)
vt 1.220703E-05 0.5000122
vt 0.09998779 0.5000122
vt 0.09998779 0.5999878
vt 1.220703E-05 0.5999878
vt 0.3333469 0.2857317
vt 0.4444309 0.2857317
vt 0.4444309 0.428554
vt 0.3333469 0.428554
vt 0.444458 0.4285889
vt 0.555542 0.4285889
vt 0.555542 0.5714111
vt 0.444458 0.5714111
vt 0.444458 0.2857317
vt 0.555542 0.2857317
vt 0.555542 0.428554
vt 0.444458 0.428554
vt 0.5555691 0.4285889
vt 0.6666531 0.4285889
vt 0.6666531 0.5714111
vt 0.5555691 0.5714111
vt 0.5555691 0.2857317
vt 0.6666531 0.2857317
vt 0.6666531 0.428554
vt 0.5555691 0.428554
vt 0.6666802 1.746416E-05
vt 0.7777642 1.746416E-05
vt 0.7777642 0.1428397
vt 0.6666802 0.1428397
vt 0.5555691 0.1428746
vt 0.6666531 0.1428746
vt 0.6666531 0.2856969
vt 0.5555691 0.2856969
vt 0.6666802 0.1428746
vt 0.7777642 0.1428746
vt 0.7777642 0.2856969
vt 0.6666802 0.2856969
vt 0.444458 0.1428746
vt 0.555542 0.1428746
vt 0.555542 0.2856969
vt 0.444458 0.2856969
vt 0.3333469 1.746416E-05
vt 0.4444309 1.746416E-05
vt 0.4444309 0.1428397
vt 0.3333469 0.1428397
vt 0.3333469 0.1428746
vt 0.4444309 0.1428746
vt 0.4444309 0.2856969
vt 0.3333469 0.2856969
vt 0.4000244 0.7500305
vt 0.5999756 0.7500305
vt 0.5999756 0.9999695
vt 0.4000244 0.9999695
vt 0.4000244 0.5000305
vt 0.5999756 0.5000305
vt 0.5999756 0.7499695
vt 0.4000244 0.7499695
vt 0.0001220703 0.500061
vt 0.9998779 0.500061
vt 0.9998779 0.999939
vt 0.0001220703 0.999939
vt 0.0001220703 6.103516E-05
vt 0.9998779 6.103516E-05
vt 0.9998779 0.499939
vt 0.0001220703 0.499939

# Normal
vn 0 0 -1

# Groups (Count = 3)

g mesh_0001
f 1/1/1 2/2/1 3/3/1 4/4/1
f 2/1/1 5/2/1 6/3/1 3/4/1
f 5/1/1 7/2/1 8/3/1 6/4/1
f 7/1/1 9/2/1 10/3/1 8/4/1
f 9/1/1 11/2/1 12/3/1 10/4/1
f 11/1/1 13/2/1 14/3/1 12/4/1
f 13/1/1 15/2/1 16/3/1 14/4/1
f 15/1/1 17/2/1 18/3/1 16/4/1
f 17/1/1 19/2/1 20/3/1 18/4/1
f 19/1/1 21/2/1 22/3/1 20/4/1
f 21/1/1 23/2/1 24/3/1 22/4/1
f 23/1/1 25/2/1 26/3/1 24/4/1
f 25/1/1 27/2/1 28/3/1 26/4/1
f 27/1/1 29/2/1 30/3/1 28/4/1
f 29/1/1 31/2/1 32/3/1 30/4/1
f 31/1/1 33/2/1 34/3/1 32/4/1
f 35/1/1 36/2/1 2/3/1 1/4/1
f 36/1/1 37/2/1 5/3/1 2/4/1
f 37/1/1 38/2/1 7/3/1 5/4/1
f 38/1/1 39/2/1 9/3/1 7/4/1
f 39/1/1 40/2/1 11/3/1 9/4/1
f 40/1/1 41/2/1 13/3/1 11/4/1
f 41/1/1 42/2/1 15/3/1 13/4/1
f 42/1/1 43/2/1 17/3/1 15/4/1
f 43/1/1 44/2/1 19/3/1 17/4/1
f 44/1/1 45/2/1 21/3/1 19/4/1
f 45/1/1 46/2/1 23/3/1 21/4/1
f 46/1/1 47/2/1 25/3/1 23/4/1
f 47/1/1 48/2/1 27/3/1 25/4/1
f 48/1/1 49/2/1 29/3/1 27/4/1
f 49/1/1 50/2/1 31/3/1 29/4/1
f 50/1/1 51/2/1 33/3/1 31/4/1
f 52/1/1 53/2/1 36/3/1 35/4/1
f 53/1/1 54/2/1 37/3/1 36/4/1
f 54/1/1 55/2/1 38/3/1 37/4/1
f 55/1/1 56/2/1 39/3/1 38/4/1
f 56/1/1 57/2/1 40/3/1 39/4/1
f 57/1/1 58/2/1 41/3/1 40/4/1
f 58/1/1 59/2/1 42/3/1 41/4/1
f 59/1/1 60/2/1 43/3/1 42/4/1
f 60/1/1 61/2/1 44/3/1 43/4/1
f 61/1/1 62/2/1 45/3/1 44/4/1
f 62/1/1 63/2/1 46/3/1 45/4/1
f 63/1/1 64/2/1 47/3/1 46/4/1
f 64/1/1 65/2/1 48/3/1 47/4/1
f 65/1/1 66/2/1 49/3/1 48/4/1
f 66/1/1 67/2/1 50/3/1 49/4/1
f 67/1/1 68/2/1 51/3/1 50/4/1
f 69/1/1 70/2/1 53/3/1 52/4/1
f 70/1/1 71/2/1 54/3/1 53/4/1
f 71/1/1 72/2/1 55/3/1 54/4/1
f 72/1/1 73/2/1 56/3/1 55/4/1
f 73/1/1 74/2/1 57/3/1 56/4/1
f 74/1/1 75/2/1 58/3/1 57/4/1
f 75/1/1 76/2/1 59/3/1 58/4/1
f 76/1/1 77/2/1 60/3/1 59/4/1
f 77/1/1 78/2/1 61/3/1 60/4/1
f 78/1/1 79/2/1 62/3/1 61/4/1
f 79/1/1 80/2/1 63/3/1 62/4/1
f 80/1/1 81/2/1 64/3/1 63/4/1
f 81/1/1 82/2/1 65/3/1 64/4/1
f 82/1/1 83/2/1 66/3/1 65/4/1
f 83/1/1 84/2/1 67/3/1 66/4/1
f 84/1/1 85/2/1 68/3/1 67/4/1
f 86/1/1 87/2/1 70/3/1 69/4/1
f 87/1/1 88/2/1 71/3/1 70/4/1
f 88/1/1 89/2/1 72/3/1 71/4/1
f 89/1/1 90/2/1 73/3/1 72/4/1
f 90/1/1 91/2/1 74/3/1 73/4/1
f 91/1/1 92/2/1 75/3/1 74/4/1
f 92/1/1 93/2/1 76/3/1 75/4/1
f 93/1/1 94/2/1 77/3/1 76/4/1
f 94/1/1 95/2/1 78/3/1 77/4/1
f 95/1/1 96/2/1 79/3/1 78/4/1
f 96/1/1 97/2/1 80/3/1 79/4/1
f 97/1/1 98/2/1 81/3/1 80/4/1
f 98/1/1 99/2/1 82/3/1 81/4/1
f 99/1/1 100/2/1 83/3/1 82/4/1
f 100/1/1 101/2/1 84/3/1 83/4/1
f 101/1/1 102/2/1 85/3/1 84/4/1
f 103/1/1 104/2/1 87/3/1 86/4/1
f 104/1/1 105/2/1 88/3/1 87/4/1
f 105/1/1 106/2/1 89/3/1 88/4/1
f 106/1/1 107/2/1 90/3/1 89/4/1
f 107/1/1 108/2/1 91/3/1 90/4/1
f 108/1/1 109/2/1 92/3/1 91/4/1
f 109/1/1 110/2/1 93/3/1 92/4/1
f 110/1/1 111/2/1 94/3/1 93/4/1
f 111/1/1 112/2/1 95/3/1 94/4/1
f 112/1/1 113/2/1 96/3/1 95/4/1
f 113/1/1 114/2/1 97/3/1 96/4/1
f 114/1/1 115/2/1 98/3/1 97/4/1
f 115/1/1 116/2/1 99/3/1 98/4/1
f 116/1/1 117/2/1 100/3/1 99/4/1
f 117/1/1 118/2/1 101/3/1 100/4/1
f 118/1/1 119/2/1 102/3/1 101/4/1
f 120/1/1 121/2/1 104/3/1 103/4/1
f 121/1/1 122/2/1 105/3/1 104/4/1
f 122/1/1 123/2/1 106/3/1 105/4/1
f 123/1/1 124/2/1 107/3/1 106/4/1
f 124/1/1 125/2/1 108/3/1 107/4/1
f 125/1/1 126/2/1 109/3/1 108/4/1
f 126/1/1 127/2/1 110/3/1 109/4/1
f 127/1/1 128/2/1 111/3/1 110/4/1
f 128/1/1 129/2/1 112/3/1 111/4/1
f 129/1/1 130/2/1 113/3/1 112/4/1
f 130/1/1 131/2/1 114/3/1 113/4/1
f 131/1/1 132/2/1 115/3/1 114/4/1
f 132/1/1 133/2/1 116/3/1 115/4/1
f 133/1/1 134/2/1 117/3/1 116/4/1
f 134/1/1 135/2/1 118/3/1 117/4/1
f 135/1/1 136/2/1 119/3/1 118/4/1
f 137/1/1 138/2/1 121/3/1 120/4/1
f 138/1/1 139/2/1 122/3/1 121/4/1
f 139/1/1 140/2/1 123/3/1 122/4/1
f 140/1/1 141/2/1 124/3/1 123/4/1
f 141/1/1 142/2/1 125/3/1 124/4/1
f 142/1/1 143/2/1 126/3/1 125/4/1
f 143/1/1 144/2/1 127/3/1 126/4/1
f 144/1/1 145/2/1 128/3/1 127/4/1
f 145/1/1 146/2/1 129/3/1 128/4/1
f 146/1/1 147/2/1 130/3/1 129/4/1
f 147/1/1 148/2/1 131/3/1 130/4/1
f 148/1/1 149/2/1 132/3/1 131/4/1
f 149/1/1 150/2/1 133/3/1 132/4/1
f 150/1/1 151/2/1 134/3/1 133/4/1
f 151/1/1 152/2/1 135/3/1 134/4/1
f 152/1/1 153/2/1 136/3/1 135/4/1
f 154/1/1 155/2/1 138/3/1 137/4/1
f 155/1/1 156/2/1 139/3/1 138/4/1
f 156/1/1 157/2/1 140/3/1 139/4/1
f 157/1/1 158/2/1 141/3/1 140/4/1
f 158/1/1 159/2/1 142/3/1 141/4/1
f 159/1/1 160/2/1 143/3/1 142/4/1
f 160/1/1 161/2/1 144/3/1 143/4/1
f 161/1/1 162/2/1 145/3/1 144/4/1
f 162/1/1 163/2/1 146/3/1 145/4/1
f 163/1/1 164/2/1 147/3/1 146/4/1
f 164/1/1 165/2/1 148/3/1 147/4/1
f 165/1/1 166/2/1 149/3/1 148/4/1
f 166/1/1 167/2/1 150/3/1 149/4/1
f 167/1/1 168/2/1 151/3/1 150/4/1
f 168/1/1 169/2/1 152/3/1 151/4/1
f 169/1/1 170/2/1 153/3/1 152/4/1
f 171/1/1 172/2/1 155/3/1 154/4/1
f 172/1/1 173/2/1 156/3/1 155/4/1
f 173/1/1 174/2/1 157/3/1 156/4/1
f 174/1/1 175/2/1 158/3/1 157/4/1
f 175/1/1 176/2/1 159/3/1 158/4/1
f 176/1/1 177/2/1 160/3/1 159/4/1
f 177/1/1 178/2/1 161/3/1 160/4/1
f 178/1/1 179/2/1 162/3/1 161/4/1
f 179/1/1 180/2/1 163/3/1 162/4/1
f 180/1/1 181/2/1 164/3/1 163/4/1
f 181/1/1 182/2/1 165/3/1 164/4/1
f 182/1/1 183/2/1 166/3/1 165/4/1
f 183/1/1 184/2/1 167/3/1 166/4/1
f 184/1/1 185/2/1 168/3/1 167/4/1
f 185/1/1 186/2/1 169/3/1 168/4/1
f 186/1/1 187/2/1 170/3/1 169/4/1
f 188/1/1 189/2/1 172/3/1 171/4/1
f 189/1/1 190/2/1 173/3/1 172/4/1
f 190/1/1 191/2/1 174/3/1 173/4/1
f 191/1/1 192/2/1 175/3/1 174/4/1
f 192/1/1 193/2/1 176/3/1 175/4/1
f 193/1/1 194/2/1 177/3/1 176/4/1
f 194/1/1 195/2/1 178/3/1 177/4/1
f 195/1/1 196/2/1 179/3/1 178/4/1
f 196/1/1 197/2/1 180/3/1 179/4/1
f 197/1/1 198/2/1 181/3/1 180/4/1
f 198/1/1 199/2/1 182/3/1 181/4/1
f 199/1/1 200/2/1 183/3/1 182/4/1
f 200/1/1 201/2/1 184/3/1 183/4/1
f 201/1/1 202/2/1 185/3/1 184/4/1
f 202/1/1 203/2/1 186/3/1 185/4/1
f 203/1/1 204/2/1 187/3/1 186/4/1

g mesh_0002
f 1/5/1 2/6/1 3/7/1 4/8/1
f 2/9/1 5/10/1 6/11/1 3/12/1
f 5/9/1 7/10/1 8/11/1 6/12/1
f 7/9/1 9/10/1 10/11/1 8/12/1
f 9/9/1 11/10/1 12/11/1 10/12/1
f 11/13/1 13/14/1 14/15/1 12/16/1
f 13/9/1 15/10/1 16/11/1 14/12/1
f 15/9/1 17/10/1 18/11/1 16/12/1
f 17/9/1 19/10/1 20/11/1 18/12/1
f 19/9/1 21/10/1 22/11/1 20/12/1
f 21/17/1 23/18/1 24/19/1 22/20/1
f 25/5/1 27/6/1 28/7/1 26/8/1
f 27/9/1 29/10/1 30/11/1 28/12/1
f 29/9/1 31/10/1 32/11/1 30/12/1
f 31/21/1 33/22/1 34/23/1 32/24/1
f 35/25/1 36/26/1 2/27/1 1/28/1
f 40/25/1 41/26/1 13/27/1 11/28/1
f 47/25/1 48/26/1 27/27/1 25/28/1
f 50/25/1 51/26/1 33/27/1 31/28/1
f 52/25/1 53/26/1 36/27/1 35/28/1
f 57/25/1 58/26/1 41/27/1 40/28/1
f 60/5/1 61/6/1 44/7/1 43/8/1
f 61/9/1 62/10/1 45/11/1 44/12/1
f 62/9/1 63/10/1 46/11/1 45/12/1
f 63/9/1 64/10/1 47/11/1 46/12/1
f 64/29/1 65/30/1 48/31/1 47/32/1
f 67/25/1 68/26/1 51/27/1 50/28/1
f 69/25/1 70/26/1 53/27/1 52/28/1
f 70/5/1 71/6/1 54/7/1 53/8/1
f 71/9/1 72/10/1 55/11/1 54/12/1
f 72/9/1 73/10/1 56/11/1 55/12/1
f 73/9/1 74/10/1 57/11/1 56/12/1
f 74/29/1 75/30/1 58/31/1 57/32/1
f 77/25/1 78/26/1 61/27/1 60/28/1
f 84/25/1 85/26/1 68/27/1 67/28/1
f 86/25/1 87/26/1 70/27/1 69/28/1
f 87/25/1 88/26/1 71/27/1 70/28/1
f 89/25/1 90/26/1 73/27/1 72/28/1
f 94/25/1 95/26/1 78/27/1 77/28/1
f 97/5/1 98/6/1 81/7/1 80/8/1
f 98/9/1 99/10/1 82/11/1 81/12/1
f 99/9/1 100/10/1 83/11/1 82/12/1
f 100/9/1 101/10/1 84/11/1 83/12/1
f 101/29/1 102/30/1 85/31/1 84/32/1
f 103/25/1 104/26/1 87/27/1 86/28/1
f 104/25/1 105/26/1 88/27/1 87/28/1
f 106/33/1 107/34/1 90/35/1 89/36/1
f 108/5/1 109/6/1 92/7/1 91/8/1
f 109/9/1 110/10/1 93/11/1 92/12/1
f 110/9/1 111/10/1 94/11/1 93/12/1
f 111/37/1 112/38/1 95/39/1 94/40/1
f 112/21/1 113/22/1 96/23/1 95/24/1
f 114/25/1 115/26/1 98/27/1 97/28/1
f 120/25/1 121/26/1 104/27/1 103/28/1
f 121/25/1 122/26/1 105/27/1 104/28/1
f 125/25/1 126/26/1 109/27/1 108/28/1
f 129/25/1 130/26/1 113/27/1 112/28/1
f 131/41/1 132/42/1 115/43/1 114/44/1
f 132/9/1 133/10/1 116/11/1 115/12/1
f 133/9/1 134/10/1 117/11/1 116/12/1
f 134/9/1 135/10/1 118/11/1 117/12/1
f 135/21/1 136/22/1 119/23/1 118/24/1
f 137/25/1 138/26/1 121/27/1 120/28/1
f 138/41/1 139/42/1 122/43/1 121/44/1
f 139/9/1 140/10/1 123/11/1 122/12/1
f 140/9/1 141/10/1 124/11/1 123/12/1
f 141/9/1 142/10/1 125/11/1 124/12/1
f 142/37/1 143/38/1 126/39/1 125/40/1
f 143/9/1 144/10/1 127/11/1 126/12/1
f 144/21/1 145/22/1 128/23/1 127/24/1
f 146/25/1 147/26/1 130/27/1 129/28/1
f 148/25/1 149/26/1 132/27/1 131/28/1
f 152/25/1 153/26/1 136/27/1 135/28/1
f 154/25/1 155/26/1 138/27/1 137/28/1
f 155/25/1 156/26/1 139/27/1 138/28/1
f 161/25/1 162/26/1 145/27/1 144/28/1
f 163/33/1 164/34/1 147/35/1 146/36/1
f 165/45/1 166/46/1 149/47/1 148/48/1
f 166/9/1 167/10/1 150/11/1 149/12/1
f 167/21/1 168/22/1 151/23/1 150/24/1
f 169/33/1 170/34/1 153/35/1 152/36/1
f 171/25/1 172/26/1 155/27/1 154/28/1
f 172/45/1 173/46/1 156/47/1 155/48/1
f 173/9/1 174/10/1 157/11/1 156/12/1
f 174/9/1 175/10/1 158/11/1 157/12/1
f 175/9/1 176/10/1 159/11/1 158/12/1
f 176/21/1 177/22/1 160/23/1 159/24/1
f 178/33/1 179/34/1 162/35/1 161/36/1
f 184/25/1 185/26/1 168/27/1 167/28/1
f 188/33/1 189/34/1 172/35/1 171/36/1
f 193/33/1 194/34/1 177/35/1 176/36/1
f 201/41/1 202/42/1 185/43/1 184/44/1
f 202/9/1 203/10/1 186/11/1 185/12/1
f 203/17/1 204/18/1 187/19/1 186/20/1

g mesh_0003
f 2/49/1 5/50/1 6/51/1 3/52/1
f 36/53/1 37/54/1 5/55/1 2/56/1

g mesh_0004
f 186/57/1 187/58/1 170/59/1 169/60/1
f 203/61/1 204/62/1 187/63/1 186/64/1

