# Wavefront OBJ file automatically generated by Tiled2Unity

# Vertices (Count = 204)
v 0 -32 0
v -32 -32 0
v -32 0 0
v 0 0 0
v -64 -32 0
v -64 0 0
v -96 -32 0
v -96 0 0
v -128 -32 0
v -128 0 0
v -160 -32 0
v -160 0 0
v -192 -32 0
v -192 0 0
v -224 -32 0
v -224 0 0
v -256 -32 0
v -256 0 0
v -288 -32 0
v -288 0 0
v -320 -32 0
v -320 0 0
v -352 -32 0
v -352 0 0
v -384 -32 0
v -384 0 0
v -416 -32 0
v -416 0 0
v -448 -32 0
v -448 0 0
v -480 -32 0
v -480 0 0
v -512 -32 0
v -512 0 0
v 0 -64 0
v -32 -64 0
v -64 -64 0
v -96 -64 0
v -128 -64 0
v -160 -64 0
v -192 -64 0
v -224 -64 0
v -256 -64 0
v -288 -64 0
v -320 -64 0
v -352 -64 0
v -384 -64 0
v -416 -64 0
v -448 -64 0
v -480 -64 0
v -512 -64 0
v 0 -96 0
v -32 -96 0
v -64 -96 0
v -96 -96 0
v -128 -96 0
v -160 -96 0
v -192 -96 0
v -224 -96 0
v -256 -96 0
v -288 -96 0
v -320 -96 0
v -352 -96 0
v -384 -96 0
v -416 -96 0
v -448 -96 0
v -480 -96 0
v -512 -96 0
v 0 -128 0
v -32 -128 0
v -64 -128 0
v -96 -128 0
v -128 -128 0
v -160 -128 0
v -192 -128 0
v -224 -128 0
v -256 -128 0
v -288 -128 0
v -320 -128 0
v -352 -128 0
v -384 -128 0
v -416 -128 0
v -448 -128 0
v -480 -128 0
v -512 -128 0
v 0 -160 0
v -32 -160 0
v -64 -160 0
v -96 -160 0
v -128 -160 0
v -160 -160 0
v -192 -160 0
v -224 -160 0
v -256 -160 0
v -288 -160 0
v -320 -160 0
v -352 -160 0
v -384 -160 0
v -416 -160 0
v -448 -160 0
v -480 -160 0
v -512 -160 0
v 0 -192 0
v -32 -192 0
v -64 -192 0
v -96 -192 0
v -128 -192 0
v -160 -192 0
v -192 -192 0
v -224 -192 0
v -256 -192 0
v -288 -192 0
v -320 -192 0
v -352 -192 0
v -384 -192 0
v -416 -192 0
v -448 -192 0
v -480 -192 0
v -512 -192 0
v 0 -224 0
v -32 -224 0
v -64 -224 0
v -96 -224 0
v -128 -224 0
v -160 -224 0
v -192 -224 0
v -224 -224 0
v -256 -224 0
v -288 -224 0
v -320 -224 0
v -352 -224 0
v -384 -224 0
v -416 -224 0
v -448 -224 0
v -480 -224 0
v -512 -224 0
v 0 -256 0
v -32 -256 0
v -64 -256 0
v -96 -256 0
v -128 -256 0
v -160 -256 0
v -192 -256 0
v -224 -256 0
v -256 -256 0
v -288 -256 0
v -320 -256 0
v -352 -256 0
v -384 -256 0
v -416 -256 0
v -448 -256 0
v -480 -256 0
v -512 -256 0
v 0 -288 0
v -32 -288 0
v -64 -288 0
v -96 -288 0
v -128 -288 0
v -160 -288 0
v -192 -288 0
v -224 -288 0
v -256 -288 0
v -288 -288 0
v -320 -288 0
v -352 -288 0
v -384 -288 0
v -416 -288 0
v -448 -288 0
v -480 -288 0
v -512 -288 0
v 0 -320 0
v -32 -320 0
v -64 -320 0
v -96 -320 0
v -128 -320 0
v -160 -320 0
v -192 -320 0
v -224 -320 0
v -256 -320 0
v -288 -320 0
v -320 -320 0
v -352 -320 0
v -384 -320 0
v -416 -320 0
v -448 -320 0
v -480 -320 0
v -512 -320 0
v 0 -352 0
v -32 -352 0
v -64 -352 0
v -96 -352 0
v -128 -352 0
v -160 -352 0
v -192 -352 0
v -224 -352 0
v -256 -352 0
v -288 -352 0
v -320 -352 0
v -352 -352 0
v -384 -352 0
v -416 -352 0
v -448 -352 0
v -480 -352 0
v -512 -352 0

# Texture cooridinates (Count = 44)
vt 0.333374 0.5000204
vt 0.666626 0.5000204
vt 0.666626 0.6666464
vt 0.333374 0.6666464
vt 4.069011E-05 0.5000204
vt 0.3332926 0.5000204
vt 0.3332926 0.6666464
vt 4.069011E-05 0.6666464
vt 0.6667073 0.5000204
vt 0.9999593 0.5000204
vt 0.9999593 0.6666464
vt 0.6667073 0.6666464
vt 4.069011E-05 0.3333537
vt 0.3332926 0.3333537
vt 0.3332926 0.4999797
vt 4.069011E-05 0.4999797
vt 0.333374 0.3333537
vt 0.666626 0.3333537
vt 0.666626 0.4999797
vt 0.333374 0.4999797
vt 0.6667073 0.3333537
vt 0.9999593 0.3333537
vt 0.9999593 0.4999797
vt 0.6667073 0.4999797
vt 4.069011E-05 0.166687
vt 0.3332926 0.166687
vt 0.3332926 0.333313
vt 4.069011E-05 0.333313
vt 0.333374 0.166687
vt 0.666626 0.166687
vt 0.666626 0.333313
vt 0.333374 0.333313
vt 0.6667073 0.166687
vt 0.9999593 0.166687
vt 0.9999593 0.333313
vt 0.6667073 0.333313
vt 0.2000122 0.7000122
vt 0.2999878 0.7000122
vt 0.2999878 0.7999878
vt 0.2000122 0.7999878
vt 1.220703E-05 0.7000122
vt 0.09998779 0.7000122
vt 0.09998779 0.7999878
vt 1.220703E-05 0.7999878

# Normal
vn 0 0 -1

# Groups (Count = 3)

g mesh_0001
f 1/1/1 2/2/1 3/3/1 4/4/1
f 2/1/1 5/2/1 6/3/1 3/4/1
f 5/1/1 7/2/1 8/3/1 6/4/1
f 7/1/1 9/2/1 10/3/1 8/4/1
f 9/1/1 11/2/1 12/3/1 10/4/1
f 11/1/1 13/2/1 14/3/1 12/4/1
f 13/1/1 15/2/1 16/3/1 14/4/1
f 15/1/1 17/2/1 18/3/1 16/4/1
f 17/1/1 19/2/1 20/3/1 18/4/1
f 19/1/1 21/2/1 22/3/1 20/4/1
f 21/1/1 23/2/1 24/3/1 22/4/1
f 23/1/1 25/2/1 26/3/1 24/4/1
f 25/1/1 27/2/1 28/3/1 26/4/1
f 27/1/1 29/2/1 30/3/1 28/4/1
f 29/1/1 31/2/1 32/3/1 30/4/1
f 31/1/1 33/2/1 34/3/1 32/4/1
f 35/1/1 36/2/1 2/3/1 1/4/1
f 36/1/1 37/2/1 5/3/1 2/4/1
f 37/1/1 38/2/1 7/3/1 5/4/1
f 38/1/1 39/2/1 9/3/1 7/4/1
f 39/1/1 40/2/1 11/3/1 9/4/1
f 40/1/1 41/2/1 13/3/1 11/4/1
f 41/1/1 42/2/1 15/3/1 13/4/1
f 42/1/1 43/2/1 17/3/1 15/4/1
f 43/1/1 44/2/1 19/3/1 17/4/1
f 44/1/1 45/2/1 21/3/1 19/4/1
f 45/1/1 46/2/1 23/3/1 21/4/1
f 46/1/1 47/2/1 25/3/1 23/4/1
f 47/1/1 48/2/1 27/3/1 25/4/1
f 48/1/1 49/2/1 29/3/1 27/4/1
f 49/1/1 50/2/1 31/3/1 29/4/1
f 50/1/1 51/2/1 33/3/1 31/4/1
f 52/1/1 53/2/1 36/3/1 35/4/1
f 53/1/1 54/2/1 37/3/1 36/4/1
f 54/1/1 55/2/1 38/3/1 37/4/1
f 55/1/1 56/2/1 39/3/1 38/4/1
f 56/1/1 57/2/1 40/3/1 39/4/1
f 57/1/1 58/2/1 41/3/1 40/4/1
f 58/1/1 59/2/1 42/3/1 41/4/1
f 59/1/1 60/2/1 43/3/1 42/4/1
f 60/1/1 61/2/1 44/3/1 43/4/1
f 61/1/1 62/2/1 45/3/1 44/4/1
f 62/1/1 63/2/1 46/3/1 45/4/1
f 63/1/1 64/2/1 47/3/1 46/4/1
f 64/1/1 65/2/1 48/3/1 47/4/1
f 65/1/1 66/2/1 49/3/1 48/4/1
f 66/1/1 67/2/1 50/3/1 49/4/1
f 67/1/1 68/2/1 51/3/1 50/4/1
f 69/1/1 70/2/1 53/3/1 52/4/1
f 70/1/1 71/2/1 54/3/1 53/4/1
f 71/1/1 72/2/1 55/3/1 54/4/1
f 72/1/1 73/2/1 56/3/1 55/4/1
f 73/1/1 74/2/1 57/3/1 56/4/1
f 74/1/1 75/2/1 58/3/1 57/4/1
f 75/1/1 76/2/1 59/3/1 58/4/1
f 76/1/1 77/2/1 60/3/1 59/4/1
f 77/1/1 78/2/1 61/3/1 60/4/1
f 78/1/1 79/2/1 62/3/1 61/4/1
f 79/1/1 80/2/1 63/3/1 62/4/1
f 80/1/1 81/2/1 64/3/1 63/4/1
f 81/1/1 82/2/1 65/3/1 64/4/1
f 82/1/1 83/2/1 66/3/1 65/4/1
f 83/1/1 84/2/1 67/3/1 66/4/1
f 84/1/1 85/2/1 68/3/1 67/4/1
f 86/1/1 87/2/1 70/3/1 69/4/1
f 87/1/1 88/2/1 71/3/1 70/4/1
f 88/1/1 89/2/1 72/3/1 71/4/1
f 89/1/1 90/2/1 73/3/1 72/4/1
f 90/1/1 91/2/1 74/3/1 73/4/1
f 91/1/1 92/2/1 75/3/1 74/4/1
f 92/1/1 93/2/1 76/3/1 75/4/1
f 93/1/1 94/2/1 77/3/1 76/4/1
f 94/1/1 95/2/1 78/3/1 77/4/1
f 95/1/1 96/2/1 79/3/1 78/4/1
f 96/1/1 97/2/1 80/3/1 79/4/1
f 97/1/1 98/2/1 81/3/1 80/4/1
f 98/1/1 99/2/1 82/3/1 81/4/1
f 99/1/1 100/2/1 83/3/1 82/4/1
f 100/1/1 101/2/1 84/3/1 83/4/1
f 101/1/1 102/2/1 85/3/1 84/4/1
f 103/1/1 104/2/1 87/3/1 86/4/1
f 104/1/1 105/2/1 88/3/1 87/4/1
f 105/1/1 106/2/1 89/3/1 88/4/1
f 106/1/1 107/2/1 90/3/1 89/4/1
f 107/1/1 108/2/1 91/3/1 90/4/1
f 108/1/1 109/2/1 92/3/1 91/4/1
f 109/1/1 110/2/1 93/3/1 92/4/1
f 110/1/1 111/2/1 94/3/1 93/4/1
f 111/1/1 112/2/1 95/3/1 94/4/1
f 112/1/1 113/2/1 96/3/1 95/4/1
f 113/1/1 114/2/1 97/3/1 96/4/1
f 114/1/1 115/2/1 98/3/1 97/4/1
f 115/1/1 116/2/1 99/3/1 98/4/1
f 116/1/1 117/2/1 100/3/1 99/4/1
f 117/1/1 118/2/1 101/3/1 100/4/1
f 118/1/1 119/2/1 102/3/1 101/4/1
f 120/1/1 121/2/1 104/3/1 103/4/1
f 121/1/1 122/2/1 105/3/1 104/4/1
f 122/1/1 123/2/1 106/3/1 105/4/1
f 123/1/1 124/2/1 107/3/1 106/4/1
f 124/1/1 125/2/1 108/3/1 107/4/1
f 125/1/1 126/2/1 109/3/1 108/4/1
f 126/1/1 127/2/1 110/3/1 109/4/1
f 127/1/1 128/2/1 111/3/1 110/4/1
f 128/1/1 129/2/1 112/3/1 111/4/1
f 129/1/1 130/2/1 113/3/1 112/4/1
f 130/1/1 131/2/1 114/3/1 113/4/1
f 131/1/1 132/2/1 115/3/1 114/4/1
f 132/1/1 133/2/1 116/3/1 115/4/1
f 133/1/1 134/2/1 117/3/1 116/4/1
f 134/1/1 135/2/1 118/3/1 117/4/1
f 135/1/1 136/2/1 119/3/1 118/4/1
f 137/1/1 138/2/1 121/3/1 120/4/1
f 138/1/1 139/2/1 122/3/1 121/4/1
f 139/1/1 140/2/1 123/3/1 122/4/1
f 140/1/1 141/2/1 124/3/1 123/4/1
f 141/1/1 142/2/1 125/3/1 124/4/1
f 142/1/1 143/2/1 126/3/1 125/4/1
f 143/1/1 144/2/1 127/3/1 126/4/1
f 144/1/1 145/2/1 128/3/1 127/4/1
f 145/1/1 146/2/1 129/3/1 128/4/1
f 146/1/1 147/2/1 130/3/1 129/4/1
f 147/1/1 148/2/1 131/3/1 130/4/1
f 148/1/1 149/2/1 132/3/1 131/4/1
f 149/1/1 150/2/1 133/3/1 132/4/1
f 150/1/1 151/2/1 134/3/1 133/4/1
f 151/1/1 152/2/1 135/3/1 134/4/1
f 152/1/1 153/2/1 136/3/1 135/4/1
f 154/1/1 155/2/1 138/3/1 137/4/1
f 155/1/1 156/2/1 139/3/1 138/4/1
f 156/1/1 157/2/1 140/3/1 139/4/1
f 157/1/1 158/2/1 141/3/1 140/4/1
f 158/1/1 159/2/1 142/3/1 141/4/1
f 159/1/1 160/2/1 143/3/1 142/4/1
f 160/1/1 161/2/1 144/3/1 143/4/1
f 161/1/1 162/2/1 145/3/1 144/4/1
f 162/1/1 163/2/1 146/3/1 145/4/1
f 163/1/1 164/2/1 147/3/1 146/4/1
f 164/1/1 165/2/1 148/3/1 147/4/1
f 165/1/1 166/2/1 149/3/1 148/4/1
f 166/1/1 167/2/1 150/3/1 149/4/1
f 167/1/1 168/2/1 151/3/1 150/4/1
f 168/1/1 169/2/1 152/3/1 151/4/1
f 169/1/1 170/2/1 153/3/1 152/4/1
f 171/1/1 172/2/1 155/3/1 154/4/1
f 172/1/1 173/2/1 156/3/1 155/4/1
f 173/1/1 174/2/1 157/3/1 156/4/1
f 174/1/1 175/2/1 158/3/1 157/4/1
f 175/1/1 176/2/1 159/3/1 158/4/1
f 176/1/1 177/2/1 160/3/1 159/4/1
f 177/1/1 178/2/1 161/3/1 160/4/1
f 178/1/1 179/2/1 162/3/1 161/4/1
f 179/1/1 180/2/1 163/3/1 162/4/1
f 180/1/1 181/2/1 164/3/1 163/4/1
f 181/1/1 182/2/1 165/3/1 164/4/1
f 182/1/1 183/2/1 166/3/1 165/4/1
f 183/1/1 184/2/1 167/3/1 166/4/1
f 184/1/1 185/2/1 168/3/1 167/4/1
f 185/1/1 186/2/1 169/3/1 168/4/1
f 186/1/1 187/2/1 170/3/1 169/4/1
f 188/1/1 189/2/1 172/3/1 171/4/1
f 189/1/1 190/2/1 173/3/1 172/4/1
f 190/1/1 191/2/1 174/3/1 173/4/1
f 191/1/1 192/2/1 175/3/1 174/4/1
f 192/1/1 193/2/1 176/3/1 175/4/1
f 193/1/1 194/2/1 177/3/1 176/4/1
f 194/1/1 195/2/1 178/3/1 177/4/1
f 195/1/1 196/2/1 179/3/1 178/4/1
f 196/1/1 197/2/1 180/3/1 179/4/1
f 197/1/1 198/2/1 181/3/1 180/4/1
f 198/1/1 199/2/1 182/3/1 181/4/1
f 199/1/1 200/2/1 183/3/1 182/4/1
f 200/1/1 201/2/1 184/3/1 183/4/1
f 201/1/1 202/2/1 185/3/1 184/4/1
f 202/1/1 203/2/1 186/3/1 185/4/1
f 203/1/1 204/2/1 187/3/1 186/4/1

g mesh_0002
f 13/5/1 15/6/1 16/7/1 14/8/1
f 15/1/1 17/2/1 18/3/1 16/4/1
f 17/1/1 19/2/1 20/3/1 18/4/1
f 19/9/1 21/10/1 22/11/1 20/12/1
f 41/13/1 42/14/1 15/15/1 13/16/1
f 42/17/1 43/18/1 17/19/1 15/20/1
f 43/17/1 44/18/1 19/19/1 17/20/1
f 44/21/1 45/22/1 21/23/1 19/24/1
f 58/13/1 59/14/1 42/15/1 41/16/1
f 59/17/1 60/18/1 43/19/1 42/20/1
f 60/17/1 61/18/1 44/19/1 43/20/1
f 61/21/1 62/22/1 45/23/1 44/24/1
f 75/13/1 76/14/1 59/15/1 58/16/1
f 76/17/1 77/18/1 60/19/1 59/20/1
f 77/17/1 78/18/1 61/19/1 60/20/1
f 78/21/1 79/22/1 62/23/1 61/24/1
f 92/13/1 93/14/1 76/15/1 75/16/1
f 93/17/1 94/18/1 77/19/1 76/20/1
f 94/17/1 95/18/1 78/19/1 77/20/1
f 95/21/1 96/22/1 79/23/1 78/24/1
f 109/13/1 110/14/1 93/15/1 92/16/1
f 110/17/1 111/18/1 94/19/1 93/20/1
f 111/17/1 112/18/1 95/19/1 94/20/1
f 112/21/1 113/22/1 96/23/1 95/24/1
f 126/13/1 127/14/1 110/15/1 109/16/1
f 127/17/1 128/18/1 111/19/1 110/20/1
f 128/17/1 129/18/1 112/19/1 111/20/1
f 129/21/1 130/22/1 113/23/1 112/24/1
f 143/13/1 144/14/1 127/15/1 126/16/1
f 144/17/1 145/18/1 128/19/1 127/20/1
f 145/17/1 146/18/1 129/19/1 128/20/1
f 146/21/1 147/22/1 130/23/1 129/24/1
f 160/13/1 161/14/1 144/15/1 143/16/1
f 161/17/1 162/18/1 145/19/1 144/20/1
f 162/17/1 163/18/1 146/19/1 145/20/1
f 163/21/1 164/22/1 147/23/1 146/24/1
f 177/13/1 178/14/1 161/15/1 160/16/1
f 178/17/1 179/18/1 162/19/1 161/20/1
f 179/17/1 180/18/1 163/19/1 162/20/1
f 180/21/1 181/22/1 164/23/1 163/24/1
f 194/25/1 195/26/1 178/27/1 177/28/1
f 195/29/1 196/30/1 179/31/1 178/32/1
f 196/29/1 197/30/1 180/31/1 179/32/1
f 197/33/1 198/34/1 181/35/1 180/36/1

g mesh_0003
f 106/37/1 107/38/1 90/39/1 89/40/1
f 115/41/1 116/42/1 99/43/1 98/44/1

