# Wavefront OBJ file automatically generated by Tiled2Unity

# Vertices (Count = 204)
v 0 -32 0
v -32 -32 0
v -32 0 0
v 0 0 0
v -64 -32 0
v -64 0 0
v -96 -32 0
v -96 0 0
v -128 -32 0
v -128 0 0
v -160 -32 0
v -160 0 0
v -192 -32 0
v -192 0 0
v -224 -32 0
v -224 0 0
v -256 -32 0
v -256 0 0
v -288 -32 0
v -288 0 0
v -320 -32 0
v -320 0 0
v -352 -32 0
v -352 0 0
v -384 -32 0
v -384 0 0
v -416 -32 0
v -416 0 0
v -448 -32 0
v -448 0 0
v -480 -32 0
v -480 0 0
v -512 -32 0
v -512 0 0
v 0 -64 0
v -32 -64 0
v -480 -64 0
v -512 -64 0
v 0 -96 0
v -32 -96 0
v -480 -96 0
v -512 -96 0
v 0 -128 0
v -32 -128 0
v -480 -128 0
v -512 -128 0
v 0 -160 0
v -32 -160 0
v -480 -160 0
v -512 -160 0
v 0 -192 0
v -32 -192 0
v -480 -192 0
v -512 -192 0
v 0 -224 0
v -32 -224 0
v -480 -224 0
v -512 -224 0
v 0 -256 0
v -32 -256 0
v -480 -256 0
v -512 -256 0
v 0 -288 0
v -32 -288 0
v -480 -288 0
v -512 -288 0
v 0 -320 0
v -32 -320 0
v -480 -320 0
v -512 -320 0
v 0 -352 0
v -32 -352 0
v -64 -352 0
v -64 -320 0
v -96 -352 0
v -96 -320 0
v -128 -352 0
v -128 -320 0
v -160 -352 0
v -160 -320 0
v -192 -352 0
v -192 -320 0
v -224 -352 0
v -224 -320 0
v -256 -352 0
v -256 -320 0
v -288 -352 0
v -288 -320 0
v -320 -352 0
v -320 -320 0
v -352 -352 0
v -352 -320 0
v -384 -352 0
v -384 -320 0
v -416 -352 0
v -416 -320 0
v -448 -352 0
v -448 -320 0
v -480 -352 0
v -512 -352 0
v -64 -64 0
v -96 -64 0
v -128 -64 0
v -160 -64 0
v -192 -64 0
v -224 -64 0
v -256 -64 0
v -288 -64 0
v -320 -64 0
v -352 -64 0
v -384 -64 0
v -416 -64 0
v -448 -64 0
v -64 -96 0
v -96 -96 0
v -128 -96 0
v -160 -96 0
v -192 -96 0
v -224 -96 0
v -256 -96 0
v -288 -96 0
v -320 -96 0
v -352 -96 0
v -384 -96 0
v -416 -96 0
v -448 -96 0
v -64 -128 0
v -96 -128 0
v -128 -128 0
v -160 -128 0
v -192 -128 0
v -224 -128 0
v -256 -128 0
v -288 -128 0
v -320 -128 0
v -352 -128 0
v -384 -128 0
v -416 -128 0
v -448 -128 0
v -64 -160 0
v -96 -160 0
v -128 -160 0
v -160 -160 0
v -192 -160 0
v -224 -160 0
v -256 -160 0
v -288 -160 0
v -320 -160 0
v -352 -160 0
v -384 -160 0
v -416 -160 0
v -448 -160 0
v -64 -192 0
v -96 -192 0
v -128 -192 0
v -160 -192 0
v -192 -192 0
v -224 -192 0
v -256 -192 0
v -288 -192 0
v -320 -192 0
v -352 -192 0
v -384 -192 0
v -416 -192 0
v -448 -192 0
v -64 -224 0
v -96 -224 0
v -128 -224 0
v -160 -224 0
v -192 -224 0
v -224 -224 0
v -256 -224 0
v -288 -224 0
v -320 -224 0
v -352 -224 0
v -384 -224 0
v -416 -224 0
v -448 -224 0
v -64 -256 0
v -96 -256 0
v -128 -256 0
v -160 -256 0
v -192 -256 0
v -224 -256 0
v -256 -256 0
v -288 -256 0
v -320 -256 0
v -352 -256 0
v -384 -256 0
v -416 -256 0
v -448 -256 0
v -64 -288 0
v -96 -288 0
v -128 -288 0
v -160 -288 0
v -192 -288 0
v -224 -288 0
v -256 -288 0
v -288 -288 0
v -320 -288 0
v -352 -288 0
v -384 -288 0
v -416 -288 0
v -448 -288 0

# Texture cooridinates (Count = 108)
vt 0.333374 0.3333537
vt 0.666626 0.3333537
vt 0.666626 0.4999797
vt 0.333374 0.4999797
vt 4.069011E-05 0.5000204
vt 0.3332926 0.5000204
vt 0.3332926 0.6666464
vt 4.069011E-05 0.6666464
vt 0.333374 0.5000204
vt 0.666626 0.5000204
vt 0.666626 0.6666464
vt 0.333374 0.6666464
vt 0.6667073 0.5000204
vt 0.9999593 0.5000204
vt 0.9999593 0.6666464
vt 0.6667073 0.6666464
vt 4.069011E-05 0.3333537
vt 0.3332926 0.3333537
vt 0.3332926 0.4999797
vt 4.069011E-05 0.4999797
vt 0.333374 2.032518E-05
vt 0.666626 2.032518E-05
vt 0.666626 0.1666463
vt 0.333374 0.1666463
vt 0.6667073 2.032518E-05
vt 0.9999593 2.032518E-05
vt 0.9999593 0.1666463
vt 0.6667073 0.1666463
vt 0.6667073 0.3333537
vt 0.9999593 0.3333537
vt 0.9999593 0.4999797
vt 0.6667073 0.4999797
vt 4.069011E-05 2.032518E-05
vt 0.3332926 2.032518E-05
vt 0.3332926 0.1666463
vt 4.069011E-05 0.1666463
vt 4.069011E-05 0.166687
vt 0.3332926 0.166687
vt 0.3332926 0.333313
vt 4.069011E-05 0.333313
vt 0.333374 0.166687
vt 0.666626 0.166687
vt 0.666626 0.333313
vt 0.333374 0.333313
vt 0.6667073 0.166687
vt 0.9999593 0.166687
vt 0.9999593 0.333313
vt 0.6667073 0.333313
vt 1.220703E-05 0.4000122
vt 0.09998779 0.4000122
vt 0.09998779 0.4999878
vt 1.220703E-05 0.4999878
vt 0.4000122 0.4000122
vt 0.4999878 0.4000122
vt 0.4999878 0.4999878
vt 0.4000122 0.4999878
vt 0.1000122 0.3000122
vt 0.1999878 0.3000122
vt 0.1999878 0.3999878
vt 0.1000122 0.3999878
vt 0.2000122 0.3000122
vt 0.2999878 0.3000122
vt 0.2999878 0.3999878
vt 0.2000122 0.3999878
vt 0.3000122 0.3000122
vt 0.3999878 0.3000122
vt 0.3999878 0.3999878
vt 0.3000122 0.3999878
vt 1.220703E-05 0.7000122
vt 0.09998779 0.7000122
vt 0.09998779 0.7999878
vt 1.220703E-05 0.7999878
vt 0.1000122 0.2000122
vt 0.1999878 0.2000122
vt 0.1999878 0.2999878
vt 0.1000122 0.2999878
vt 0.2000122 0.2000122
vt 0.2999878 0.2000122
vt 0.2999878 0.2999878
vt 0.2000122 0.2999878
vt 0.3000122 0.2000122
vt 0.3999878 0.2000122
vt 0.3999878 0.2999878
vt 0.3000122 0.2999878
vt 0.5000122 0.7000122
vt 0.5999878 0.7000122
vt 0.5999878 0.7999878
vt 0.5000122 0.7999878
vt 0.1000122 0.1000122
vt 0.1999878 0.1000122
vt 0.1999878 0.1999878
vt 0.1000122 0.1999878
vt 0.2000122 0.1000122
vt 0.2999878 0.1000122
vt 0.2999878 0.1999878
vt 0.2000122 0.1999878
vt 0.3000122 0.1000122
vt 0.3999878 0.1000122
vt 0.3999878 0.1999878
vt 0.3000122 0.1999878
vt 1.220703E-05 1.221895E-05
vt 0.09998779 1.221895E-05
vt 0.09998779 0.0999878
vt 1.220703E-05 0.0999878
vt 0.4000122 1.221895E-05
vt 0.4999878 1.221895E-05
vt 0.4999878 0.0999878
vt 0.4000122 0.0999878

# Normal
vn 0 0 -1

# Groups (Count = 3)

g mesh_0001
f 1/1/1 2/2/1 3/3/1 4/4/1
f 2/1/1 5/2/1 6/3/1 3/4/1
f 5/1/1 7/2/1 8/3/1 6/4/1
f 7/1/1 9/2/1 10/3/1 8/4/1
f 9/1/1 11/2/1 12/3/1 10/4/1
f 11/1/1 13/2/1 14/3/1 12/4/1
f 13/1/1 15/2/1 16/3/1 14/4/1
f 15/1/1 17/2/1 18/3/1 16/4/1
f 17/1/1 19/2/1 20/3/1 18/4/1
f 19/1/1 21/2/1 22/3/1 20/4/1
f 21/1/1 23/2/1 24/3/1 22/4/1
f 23/1/1 25/2/1 26/3/1 24/4/1
f 25/1/1 27/2/1 28/3/1 26/4/1
f 27/1/1 29/2/1 30/3/1 28/4/1
f 29/1/1 31/2/1 32/3/1 30/4/1
f 31/1/1 33/2/1 34/3/1 32/4/1
f 35/1/1 36/2/1 2/3/1 1/4/1
f 37/1/1 38/2/1 33/3/1 31/4/1
f 39/1/1 40/2/1 36/3/1 35/4/1
f 41/1/1 42/2/1 38/3/1 37/4/1
f 43/1/1 44/2/1 40/3/1 39/4/1
f 45/1/1 46/2/1 42/3/1 41/4/1
f 47/1/1 48/2/1 44/3/1 43/4/1
f 49/1/1 50/2/1 46/3/1 45/4/1
f 51/1/1 52/2/1 48/3/1 47/4/1
f 53/1/1 54/2/1 50/3/1 49/4/1
f 55/1/1 56/2/1 52/3/1 51/4/1
f 57/1/1 58/2/1 54/3/1 53/4/1
f 59/1/1 60/2/1 56/3/1 55/4/1
f 61/1/1 62/2/1 58/3/1 57/4/1
f 63/1/1 64/2/1 60/3/1 59/4/1
f 65/1/1 66/2/1 62/3/1 61/4/1
f 67/1/1 68/2/1 64/3/1 63/4/1
f 69/1/1 70/2/1 66/3/1 65/4/1
f 71/1/1 72/2/1 68/3/1 67/4/1
f 72/1/1 73/2/1 74/3/1 68/4/1
f 73/1/1 75/2/1 76/3/1 74/4/1
f 75/1/1 77/2/1 78/3/1 76/4/1
f 77/1/1 79/2/1 80/3/1 78/4/1
f 79/1/1 81/2/1 82/3/1 80/4/1
f 81/1/1 83/2/1 84/3/1 82/4/1
f 83/1/1 85/2/1 86/3/1 84/4/1
f 85/1/1 87/2/1 88/3/1 86/4/1
f 87/1/1 89/2/1 90/3/1 88/4/1
f 89/1/1 91/2/1 92/3/1 90/4/1
f 91/1/1 93/2/1 94/3/1 92/4/1
f 93/1/1 95/2/1 96/3/1 94/4/1
f 95/1/1 97/2/1 98/3/1 96/4/1
f 97/1/1 99/2/1 69/3/1 98/4/1
f 99/1/1 100/2/1 70/3/1 69/4/1

g mesh_0002
f 1/5/1 2/6/1 3/7/1 4/8/1
f 2/9/1 5/10/1 6/11/1 3/12/1
f 5/9/1 7/10/1 8/11/1 6/12/1
f 7/9/1 9/10/1 10/11/1 8/12/1
f 9/9/1 11/10/1 12/11/1 10/12/1
f 11/9/1 13/10/1 14/11/1 12/12/1
f 13/9/1 15/10/1 16/11/1 14/12/1
f 15/9/1 17/10/1 18/11/1 16/12/1
f 17/9/1 19/10/1 20/11/1 18/12/1
f 19/9/1 21/10/1 22/11/1 20/12/1
f 21/9/1 23/10/1 24/11/1 22/12/1
f 23/9/1 25/10/1 26/11/1 24/12/1
f 25/9/1 27/10/1 28/11/1 26/12/1
f 27/9/1 29/10/1 30/11/1 28/12/1
f 29/9/1 31/10/1 32/11/1 30/12/1
f 31/13/1 33/14/1 34/15/1 32/16/1
f 35/17/1 36/18/1 2/19/1 1/20/1
f 36/21/1 101/22/1 5/23/1 2/24/1
f 101/1/1 102/2/1 7/3/1 5/4/1
f 102/1/1 103/2/1 9/3/1 7/4/1
f 103/21/1 104/22/1 11/23/1 9/24/1
f 104/21/1 105/22/1 13/23/1 11/24/1
f 105/1/1 106/2/1 15/3/1 13/4/1
f 106/1/1 107/2/1 17/3/1 15/4/1
f 107/25/1 108/26/1 19/27/1 17/28/1
f 108/25/1 109/26/1 21/27/1 19/28/1
f 109/25/1 110/26/1 23/27/1 21/28/1
f 110/25/1 111/26/1 25/27/1 23/28/1
f 111/1/1 112/2/1 27/3/1 25/4/1
f 112/1/1 113/2/1 29/3/1 27/4/1
f 113/21/1 37/22/1 31/23/1 29/24/1
f 37/29/1 38/30/1 33/31/1 31/32/1
f 39/17/1 40/18/1 36/19/1 35/20/1
f 40/1/1 114/2/1 101/3/1 36/4/1
f 114/1/1 115/2/1 102/3/1 101/4/1
f 115/21/1 116/22/1 103/23/1 102/24/1
f 116/1/1 117/2/1 104/3/1 103/4/1
f 117/1/1 118/2/1 105/3/1 104/4/1
f 118/21/1 119/22/1 106/23/1 105/24/1
f 119/25/1 120/26/1 107/27/1 106/28/1
f 120/1/1 121/2/1 108/3/1 107/4/1
f 121/33/1 122/34/1 109/35/1 108/36/1
f 122/1/1 123/2/1 110/3/1 109/4/1
f 123/25/1 124/26/1 111/27/1 110/28/1
f 124/21/1 125/22/1 112/23/1 111/24/1
f 125/1/1 126/2/1 113/3/1 112/4/1
f 126/1/1 41/2/1 37/3/1 113/4/1
f 41/29/1 42/30/1 38/31/1 37/32/1
f 43/17/1 44/18/1 40/19/1 39/20/1
f 44/1/1 127/2/1 114/3/1 40/4/1
f 127/1/1 128/2/1 115/3/1 114/4/1
f 128/33/1 129/34/1 116/35/1 115/36/1
f 129/1/1 130/2/1 117/3/1 116/4/1
f 130/1/1 131/2/1 118/3/1 117/4/1
f 131/25/1 132/26/1 119/27/1 118/28/1
f 132/25/1 133/26/1 120/27/1 119/28/1
f 133/21/1 134/22/1 121/23/1 120/24/1
f 134/1/1 135/2/1 122/3/1 121/4/1
f 135/1/1 136/2/1 123/3/1 122/4/1
f 136/1/1 137/2/1 124/3/1 123/4/1
f 137/33/1 138/34/1 125/35/1 124/36/1
f 138/1/1 139/2/1 126/3/1 125/4/1
f 139/25/1 45/26/1 41/27/1 126/28/1
f 45/29/1 46/30/1 42/31/1 41/32/1
f 47/17/1 48/18/1 44/19/1 43/20/1
f 48/21/1 140/22/1 127/23/1 44/24/1
f 140/21/1 141/22/1 128/23/1 127/24/1
f 141/1/1 142/2/1 129/3/1 128/4/1
f 142/25/1 143/26/1 130/27/1 129/28/1
f 143/1/1 144/2/1 131/3/1 130/4/1
f 144/25/1 145/26/1 132/27/1 131/28/1
f 145/1/1 146/2/1 133/3/1 132/4/1
f 146/1/1 147/2/1 134/3/1 133/4/1
f 147/1/1 148/2/1 135/3/1 134/4/1
f 148/1/1 149/2/1 136/3/1 135/4/1
f 149/1/1 150/2/1 137/3/1 136/4/1
f 150/1/1 151/2/1 138/3/1 137/4/1
f 151/1/1 152/2/1 139/3/1 138/4/1
f 152/25/1 49/26/1 45/27/1 139/28/1
f 49/29/1 50/30/1 46/31/1 45/32/1
f 51/17/1 52/18/1 48/19/1 47/20/1
f 52/1/1 153/2/1 140/3/1 48/4/1
f 153/1/1 154/2/1 141/3/1 140/4/1
f 154/1/1 155/2/1 142/3/1 141/4/1
f 155/25/1 156/26/1 143/27/1 142/28/1
f 156/1/1 157/2/1 144/3/1 143/4/1
f 157/1/1 158/2/1 145/3/1 144/4/1
f 158/1/1 159/2/1 146/3/1 145/4/1
f 159/33/1 160/34/1 147/35/1 146/36/1
f 160/1/1 161/2/1 148/3/1 147/4/1
f 161/33/1 162/34/1 149/35/1 148/36/1
f 162/1/1 163/2/1 150/3/1 149/4/1
f 163/1/1 164/2/1 151/3/1 150/4/1
f 164/1/1 165/2/1 152/3/1 151/4/1
f 165/1/1 53/2/1 49/3/1 152/4/1
f 53/29/1 54/30/1 50/31/1 49/32/1
f 55/17/1 56/18/1 52/19/1 51/20/1
f 56/1/1 166/2/1 153/3/1 52/4/1
f 166/33/1 167/34/1 154/35/1 153/36/1
f 167/1/1 168/2/1 155/3/1 154/4/1
f 168/21/1 169/22/1 156/23/1 155/24/1
f 169/1/1 170/2/1 157/3/1 156/4/1
f 170/25/1 171/26/1 158/27/1 157/28/1
f 171/1/1 172/2/1 159/3/1 158/4/1
f 172/1/1 173/2/1 160/3/1 159/4/1
f 173/21/1 174/22/1 161/23/1 160/24/1
f 174/25/1 175/26/1 162/27/1 161/28/1
f 175/1/1 176/2/1 163/3/1 162/4/1
f 176/1/1 177/2/1 164/3/1 163/4/1
f 177/1/1 178/2/1 165/3/1 164/4/1
f 178/1/1 57/2/1 53/3/1 165/4/1
f 57/29/1 58/30/1 54/31/1 53/32/1
f 59/17/1 60/18/1 56/19/1 55/20/1
f 60/1/1 179/2/1 166/3/1 56/4/1
f 179/1/1 180/2/1 167/3/1 166/4/1
f 180/1/1 181/2/1 168/3/1 167/4/1
f 181/33/1 182/34/1 169/35/1 168/36/1
f 182/1/1 183/2/1 170/3/1 169/4/1
f 183/21/1 184/22/1 171/23/1 170/24/1
f 184/1/1 185/2/1 172/3/1 171/4/1
f 185/25/1 186/26/1 173/27/1 172/28/1
f 186/33/1 187/34/1 174/35/1 173/36/1
f 187/1/1 188/2/1 175/3/1 174/4/1
f 188/25/1 189/26/1 176/27/1 175/28/1
f 189/25/1 190/26/1 177/27/1 176/28/1
f 190/21/1 191/22/1 178/23/1 177/24/1
f 191/1/1 61/2/1 57/3/1 178/4/1
f 61/29/1 62/30/1 58/31/1 57/32/1
f 63/17/1 64/18/1 60/19/1 59/20/1
f 64/1/1 192/2/1 179/3/1 60/4/1
f 192/1/1 193/2/1 180/3/1 179/4/1
f 193/1/1 194/2/1 181/3/1 180/4/1
f 194/1/1 195/2/1 182/3/1 181/4/1
f 195/1/1 196/2/1 183/3/1 182/4/1
f 196/1/1 197/2/1 184/3/1 183/4/1
f 197/1/1 198/2/1 185/3/1 184/4/1
f 198/25/1 199/26/1 186/27/1 185/28/1
f 199/25/1 200/26/1 187/27/1 186/28/1
f 200/1/1 201/2/1 188/3/1 187/4/1
f 201/25/1 202/26/1 189/27/1 188/28/1
f 202/1/1 203/2/1 190/3/1 189/4/1
f 203/33/1 204/34/1 191/35/1 190/36/1
f 204/1/1 65/2/1 61/3/1 191/4/1
f 65/29/1 66/30/1 62/31/1 61/32/1
f 67/17/1 68/18/1 64/19/1 63/20/1
f 68/21/1 74/22/1 192/23/1 64/24/1
f 74/1/1 76/2/1 193/3/1 192/4/1
f 76/21/1 78/22/1 194/23/1 193/24/1
f 78/1/1 80/2/1 195/3/1 194/4/1
f 80/1/1 82/2/1 196/3/1 195/4/1
f 82/1/1 84/2/1 197/3/1 196/4/1
f 84/1/1 86/2/1 198/3/1 197/4/1
f 86/1/1 88/2/1 199/3/1 198/4/1
f 88/21/1 90/22/1 200/23/1 199/24/1
f 90/1/1 92/2/1 201/3/1 200/4/1
f 92/1/1 94/2/1 202/3/1 201/4/1
f 94/1/1 96/2/1 203/3/1 202/4/1
f 96/1/1 98/2/1 204/3/1 203/4/1
f 98/33/1 69/34/1 65/35/1 204/36/1
f 69/29/1 70/30/1 66/31/1 65/32/1
f 71/37/1 72/38/1 68/39/1 67/40/1
f 72/41/1 73/42/1 74/43/1 68/44/1
f 73/41/1 75/42/1 76/43/1 74/44/1
f 75/41/1 77/42/1 78/43/1 76/44/1
f 77/41/1 79/42/1 80/43/1 78/44/1
f 79/41/1 81/42/1 82/43/1 80/44/1
f 81/41/1 83/42/1 84/43/1 82/44/1
f 83/41/1 85/42/1 86/43/1 84/44/1
f 85/41/1 87/42/1 88/43/1 86/44/1
f 87/41/1 89/42/1 90/43/1 88/44/1
f 89/41/1 91/42/1 92/43/1 90/44/1
f 91/41/1 93/42/1 94/43/1 92/44/1
f 93/41/1 95/42/1 96/43/1 94/44/1
f 95/41/1 97/42/1 98/43/1 96/44/1
f 97/41/1 99/42/1 69/43/1 98/44/1
f 99/45/1 100/46/1 70/47/1 69/48/1

g mesh_0003
f 116/49/1 117/50/1 104/51/1 103/52/1
f 123/53/1 124/54/1 111/55/1 110/56/1
f 144/57/1 145/58/1 132/59/1 131/60/1
f 145/61/1 146/62/1 133/63/1 132/64/1
f 146/61/1 147/62/1 134/63/1 133/64/1
f 147/65/1 148/66/1 135/67/1 134/68/1
f 52/69/1 153/70/1 140/71/1 48/72/1
f 157/73/1 158/74/1 145/75/1 144/76/1
f 158/77/1 159/78/1 146/79/1 145/80/1
f 159/77/1 160/78/1 147/79/1 146/80/1
f 160/81/1 161/82/1 148/83/1 147/84/1
f 165/85/1 53/86/1 49/87/1 152/88/1
f 170/89/1 171/90/1 158/91/1 157/92/1
f 171/93/1 172/94/1 159/95/1 158/96/1
f 172/93/1 173/94/1 160/95/1 159/96/1
f 173/97/1 174/98/1 161/99/1 160/100/1
f 194/101/1 195/102/1 182/103/1 181/104/1
f 201/105/1 202/106/1 189/107/1 188/108/1

